<svg width="23" height="27" viewBox="0 0 23 27" fill="none" xmlns="http://www.w3.org/2000/svg">
<g filter="url(#filter0_d_1_315)">
<path d="M16.9987 19.5441C15.9383 20.5673 14.7805 20.4057 13.6659 19.9211C12.4864 19.4256 11.4044 19.4041 10.16 19.9211C8.60175 20.5888 7.77936 20.395 6.84877 19.5441C1.56819 14.1264 2.34729 5.87597 8.34205 5.57439C9.80286 5.64979 10.82 6.37143 11.6749 6.43605C12.9517 6.17755 14.1745 5.43437 15.5379 5.53131C17.1719 5.66056 18.4055 6.3068 19.217 7.47005C15.8409 9.48418 16.6417 13.911 19.7364 15.1496C19.1196 16.7652 18.3189 18.3701 16.9879 19.5548L16.9987 19.5441ZM11.5667 5.50977C11.4044 3.10789 13.3629 1.12606 15.6137 0.93219C15.9275 3.71105 13.0816 5.77904 11.5667 5.50977Z" fill="black"/>
</g>
<defs>
<filter id="filter0_d_1_315" x="0.341277" y="0.93219" width="22.3782" height="25.3559" filterUnits="userSpaceOnUse" color-interpolation-filters="sRGB">
<feFlood flood-opacity="0" result="BackgroundImageFix"/>
<feColorMatrix in="SourceAlpha" type="matrix" values="0 0 0 0 0 0 0 0 0 0 0 0 0 0 0 0 0 0 127 0" result="hardAlpha"/>
<feOffset dy="2.98305"/>
<feGaussianBlur stdDeviation="1.49153"/>
<feComposite in2="hardAlpha" operator="out"/>
<feColorMatrix type="matrix" values="0 0 0 0 0 0 0 0 0 0 0 0 0 0 0 0 0 0 0.09 0"/>
<feBlend mode="normal" in2="BackgroundImageFix" result="effect1_dropShadow_1_315"/>
<feBlend mode="normal" in="SourceGraphic" in2="effect1_dropShadow_1_315" result="shape"/>
</filter>
</defs>
</svg>
