<svg width="16" height="16" viewBox="0 0 16 16" fill="none" xmlns="http://www.w3.org/2000/svg">
<circle cx="8" cy="8" r="8" fill="black"/>
<path fill-rule="evenodd" clip-rule="evenodd" d="M11.9109 6.23083L12.5396 5.60216C13.1348 5.00688 13.1348 4.04174 12.5396 3.44646C11.9443 2.85118 10.9791 2.85118 10.3839 3.44646L9.74185 4.08847C10.2426 4.99197 10.9944 5.73784 11.9109 6.23083ZM8.2866 5.54372L5.31207 8.51825C4.88701 8.94331 4.67448 9.15584 4.53474 9.41693C4.39501 9.67803 4.33606 9.97276 4.21817 10.5622L4.06385 11.3338C3.99733 11.6664 3.96407 11.8327 4.05868 11.9273C4.15328 12.0219 4.31959 11.9887 4.6522 11.9222L5.4238 11.7678L5.42381 11.7678C6.01326 11.6499 6.30798 11.591 6.56908 11.4513C6.83017 11.3115 7.0427 11.099 7.46776 10.674L7.46777 10.6739L10.4518 7.68992C9.5872 7.13105 8.85031 6.39898 8.2866 5.54372Z" fill="white"/>
</svg>
