<svg width="21" height="20" viewBox="0 0 21 20" fill="none" xmlns="http://www.w3.org/2000/svg">
<path d="M19.8813 7.79616H19.0967V7.75593H10.3307V11.6339H15.8353C15.0322 13.8914 12.8743 15.5119 10.3307 15.5119C7.10335 15.5119 4.4867 12.9073 4.4867 9.69491C4.4867 6.4825 7.10335 3.87796 10.3307 3.87796C11.8204 3.87796 13.1758 4.43736 14.2077 5.35111L16.9627 2.6089C15.2231 0.995183 12.8962 0 10.3307 0C4.95179 0 0.590698 4.3409 0.590698 9.69491C0.590698 15.0489 4.95179 19.3898 10.3307 19.3898C15.7096 19.3898 20.0707 15.0489 20.0707 9.69491C20.0707 9.04487 20.0035 8.41034 19.8813 7.79616Z" fill="#FFC107"/>
<path d="M10.3308 19.3898C12.8466 19.3898 15.1326 18.4314 16.861 16.873L13.8464 14.3339C12.8357 15.099 11.6006 15.5128 10.3308 15.5118C7.7974 15.5118 5.64632 13.9039 4.83595 11.66L1.65974 14.0959C3.27171 17.2356 6.54532 19.3898 10.3308 19.3898Z" fill="#4CAF50"/>
<path d="M19.8813 7.79622H19.0967V7.75598H10.3307V11.6339H15.8353C15.4512 12.7083 14.7592 13.6472 13.8449 14.3345L13.8464 14.3335L16.8609 16.8726C16.6476 17.0655 20.0707 14.5424 20.0707 9.69496C20.0707 9.04492 20.0035 8.41039 19.8813 7.79622Z" fill="#1976D2"/>
<path d="M1.71369 5.18242L4.91377 7.5184C5.77966 5.38455 7.87668 3.87796 10.3307 3.87796C11.8204 3.87796 13.1757 4.43736 14.2077 5.35111L16.9626 2.6089C15.2231 0.995183 12.8962 0 10.3307 0C6.58954 0 3.34514 2.10234 1.71369 5.18242Z" fill="#FF3D00"/>
</svg>
