<svg width="147" height="166" viewBox="0 0 147 166" fill="none" xmlns="http://www.w3.org/2000/svg">
<path d="M147 92.5C147 81.8813 144.699 71.3886 140.256 61.7442C135.812 52.0999 129.332 43.5328 121.261 36.6327C113.189 29.7325 103.719 24.6632 93.5009 21.7737C83.2829 18.8841 72.5601 18.2429 62.0705 19.8941L67.6686 55.4558C73.0204 54.6133 78.4913 54.9405 83.7046 56.4148C88.918 57.889 93.7499 60.4755 97.868 63.996C101.986 67.5165 105.292 71.8875 107.559 76.8081C109.826 81.7288 111 87.0822 111 92.5H147Z" fill="#F68D2B"/>
<path d="M62.4012 19.8428C45.8009 22.3786 30.5695 30.5224 19.2415 42.9191C7.91353 55.3158 1.17216 71.2177 0.139187 87.9788L36.0706 90.1932C36.5977 81.6416 40.0372 73.5283 45.8168 67.2034C51.5964 60.8785 59.3676 56.7234 67.8373 55.4296L62.4012 19.8428Z" fill="#F4A79D"/>
<path d="M101.217 24.4265C116.967 30.8391 130.005 42.5141 138.111 57.4622C146.217 72.4104 148.89 89.7068 145.673 106.404C142.456 123.102 133.549 138.168 120.47 149.034C107.39 159.901 90.9473 165.896 73.943 165.999C56.9387 166.101 40.4249 160.304 27.2154 149.596C14.0059 138.888 4.91793 123.931 1.50002 107.273C-1.91788 90.6158 0.545741 73.2885 8.47112 58.2437C16.3965 43.1989 29.2933 31.3676 44.964 24.7656L58.9406 57.9413C50.9453 61.3097 44.3653 67.3461 40.3216 75.0221C36.278 82.6981 35.0211 91.5387 36.7649 100.038C38.5088 108.536 43.1455 116.168 49.8852 121.631C56.6248 127.094 65.0503 130.052 73.726 130C82.4018 129.947 90.791 126.889 97.4643 121.344C104.138 115.8 108.682 108.113 110.323 99.5941C111.965 91.0749 110.601 82.2501 106.465 74.6234C102.329 66.9967 95.677 61.04 87.6417 57.7683L101.217 24.4265Z" fill="#344BFD"/>
<g filter="url(#filter0_d_2_1796)">
<circle cx="83.5697" cy="15.5697" r="13.5697" fill="#ECEAF8"/>
</g>
<path d="M74.3835 16.9773V16.0085L76.8125 12.1818H77.6477V13.5227H77.1534L75.6222 15.946V15.9915H79.0739V16.9773H74.3835ZM77.1761 18V16.6818L77.1989 16.2528V12.1818H78.3523V18H77.1761ZM80.5028 18.0739C80.3153 18.0739 80.1544 18.0076 80.0199 17.875C79.8873 17.7405 79.821 17.5795 79.821 17.392C79.821 17.2064 79.8873 17.0473 80.0199 16.9148C80.1544 16.7822 80.3153 16.7159 80.5028 16.7159C80.6847 16.7159 80.8438 16.7822 80.9801 16.9148C81.1165 17.0473 81.1847 17.2064 81.1847 17.392C81.1847 17.517 81.1525 17.6316 81.0881 17.7358C81.0256 17.8381 80.9432 17.9205 80.8409 17.983C80.7386 18.0436 80.6259 18.0739 80.5028 18.0739ZM82.0788 16.9773V16.0085L84.5078 12.1818H85.343V13.5227H84.8487L83.3175 15.946V15.9915H86.7692V16.9773H82.0788ZM84.8714 18V16.6818L84.8942 16.2528V12.1818H86.0476V18H84.8714ZM90.7734 16.9091V16.6023C90.7734 16.3693 90.8227 16.1553 90.9212 15.9602C91.0215 15.7633 91.1664 15.6061 91.3558 15.4886C91.5471 15.3693 91.7801 15.3097 92.0547 15.3097C92.3331 15.3097 92.567 15.3684 92.7564 15.4858C92.9477 15.6032 93.0916 15.7604 93.1882 15.9574C93.2867 16.1525 93.3359 16.3674 93.3359 16.6023V16.9091C93.3359 17.142 93.2867 17.357 93.1882 17.554C93.0897 17.7491 92.9448 17.9053 92.7536 18.0227C92.5623 18.142 92.3293 18.2017 92.0547 18.2017C91.7763 18.2017 91.5424 18.142 91.353 18.0227C91.1636 17.9053 91.0196 17.7491 90.9212 17.554C90.8227 17.357 90.7734 17.142 90.7734 16.9091ZM91.6001 16.6023V16.9091C91.6001 17.0436 91.6323 17.1705 91.6967 17.2898C91.763 17.4091 91.8823 17.4688 92.0547 17.4688C92.227 17.4688 92.3445 17.41 92.407 17.2926C92.4714 17.1752 92.5036 17.0473 92.5036 16.9091V16.6023C92.5036 16.464 92.4732 16.3352 92.4126 16.2159C92.352 16.0966 92.2327 16.0369 92.0547 16.0369C91.8842 16.0369 91.7659 16.0966 91.6996 16.2159C91.6333 16.3352 91.6001 16.464 91.6001 16.6023ZM87.7876 13.5795V13.2727C87.7876 13.0379 87.8378 12.8229 87.9382 12.6278C88.0386 12.4309 88.1835 12.2737 88.3729 12.1562C88.5642 12.0388 88.7952 11.9801 89.0661 11.9801C89.3464 11.9801 89.5812 12.0388 89.7706 12.1562C89.96 12.2737 90.1039 12.4309 90.2024 12.6278C90.3009 12.8229 90.3501 13.0379 90.3501 13.2727V13.5795C90.3501 13.8144 90.3 14.0294 90.1996 14.2244C90.1011 14.4195 89.9562 14.5758 89.7649 14.6932C89.5755 14.8087 89.3426 14.8665 89.0661 14.8665C88.7895 14.8665 88.5556 14.8078 88.3643 14.6903C88.175 14.571 88.031 14.4148 87.9325 14.2216C87.8359 14.0265 87.7876 13.8125 87.7876 13.5795ZM88.62 13.2727V13.5795C88.62 13.7178 88.6522 13.8456 88.7166 13.9631C88.7829 14.0805 88.8994 14.1392 89.0661 14.1392C89.2403 14.1392 89.3587 14.0805 89.4212 13.9631C89.4856 13.8456 89.5178 13.7178 89.5178 13.5795V13.2727C89.5178 13.1345 89.4875 13.0057 89.4268 12.8864C89.3662 12.767 89.246 12.7074 89.0661 12.7074C88.8975 12.7074 88.781 12.768 88.7166 12.8892C88.6522 13.0104 88.62 13.1383 88.62 13.2727ZM88.1626 18L92.1626 12.1818H92.907L88.907 18H88.1626Z" fill="black"/>
<g filter="url(#filter1_d_2_1796)">
<circle cx="50.5697" cy="15.5697" r="13.5697" fill="#ECEAF8"/>
</g>
<path d="M41.4716 18V17.1136L43.5426 15.196C43.7188 15.0256 43.8665 14.8722 43.9858 14.7358C44.107 14.5994 44.1989 14.4659 44.2614 14.3352C44.3239 14.2027 44.3551 14.0597 44.3551 13.9062C44.3551 13.7358 44.3163 13.589 44.2386 13.4659C44.161 13.3409 44.0549 13.2453 43.9205 13.179C43.786 13.1108 43.6335 13.0767 43.4631 13.0767C43.285 13.0767 43.1297 13.1127 42.9972 13.1847C42.8646 13.2566 42.7623 13.3598 42.6903 13.4943C42.6184 13.6288 42.5824 13.7888 42.5824 13.9744H41.4148C41.4148 13.5937 41.5009 13.2633 41.6733 12.983C41.8456 12.7027 42.0871 12.4858 42.3977 12.3324C42.7083 12.179 43.0663 12.1023 43.4716 12.1023C43.8883 12.1023 44.2509 12.1761 44.5597 12.3239C44.8703 12.4697 45.1117 12.6723 45.2841 12.9318C45.4564 13.1913 45.5426 13.4886 45.5426 13.8239C45.5426 14.0436 45.4991 14.2604 45.4119 14.4744C45.3267 14.6884 45.1742 14.9261 44.9545 15.1875C44.7348 15.447 44.4252 15.7585 44.0256 16.1222L43.1761 16.9545V16.9943H45.6193V18H41.4716ZM47.2294 18.0739C47.0419 18.0739 46.8809 18.0076 46.7464 17.875C46.6139 17.7405 46.5476 17.5795 46.5476 17.392C46.5476 17.2064 46.6139 17.0473 46.7464 16.9148C46.8809 16.7822 47.0419 16.7159 47.2294 16.7159C47.4112 16.7159 47.5703 16.7822 47.7067 16.9148C47.843 17.0473 47.9112 17.2064 47.9112 17.392C47.9112 17.517 47.879 17.6316 47.8146 17.7358C47.7521 17.8381 47.6697 17.9205 47.5675 17.983C47.4652 18.0436 47.3525 18.0739 47.2294 18.0739ZM48.8935 18V17.1136L50.9645 15.196C51.1406 15.0256 51.2884 14.8722 51.4077 14.7358C51.5289 14.5994 51.6207 14.4659 51.6832 14.3352C51.7457 14.2027 51.777 14.0597 51.777 13.9062C51.777 13.7358 51.7382 13.589 51.6605 13.4659C51.5829 13.3409 51.4768 13.2453 51.3423 13.179C51.2079 13.1108 51.0554 13.0767 50.8849 13.0767C50.7069 13.0767 50.5516 13.1127 50.419 13.1847C50.2865 13.2566 50.1842 13.3598 50.1122 13.4943C50.0402 13.6288 50.0043 13.7888 50.0043 13.9744H48.8366C48.8366 13.5937 48.9228 13.2633 49.0952 12.983C49.2675 12.7027 49.509 12.4858 49.8196 12.3324C50.1302 12.179 50.4882 12.1023 50.8935 12.1023C51.3101 12.1023 51.6728 12.1761 51.9815 12.3239C52.2921 12.4697 52.5336 12.6723 52.706 12.9318C52.8783 13.1913 52.9645 13.4886 52.9645 13.8239C52.9645 14.0436 52.9209 14.2604 52.8338 14.4744C52.7486 14.6884 52.5961 14.9261 52.3764 15.1875C52.1567 15.447 51.8471 15.7585 51.4474 16.1222L50.598 16.9545V16.9943H53.0412V18H48.8935ZM57.1172 16.9091V16.6023C57.1172 16.3693 57.1664 16.1553 57.2649 15.9602C57.3653 15.7633 57.5102 15.6061 57.6996 15.4886C57.8909 15.3693 58.1238 15.3097 58.3984 15.3097C58.6768 15.3097 58.9107 15.3684 59.1001 15.4858C59.2914 15.6032 59.4354 15.7604 59.532 15.9574C59.6304 16.1525 59.6797 16.3674 59.6797 16.6023V16.9091C59.6797 17.142 59.6304 17.357 59.532 17.554C59.4335 17.7491 59.2886 17.9053 59.0973 18.0227C58.906 18.142 58.6731 18.2017 58.3984 18.2017C58.12 18.2017 57.8861 18.142 57.6967 18.0227C57.5073 17.9053 57.3634 17.7491 57.2649 17.554C57.1664 17.357 57.1172 17.142 57.1172 16.9091ZM57.9439 16.6023V16.9091C57.9439 17.0436 57.9761 17.1705 58.0405 17.2898C58.1068 17.4091 58.2261 17.4688 58.3984 17.4688C58.5708 17.4688 58.6882 17.41 58.7507 17.2926C58.8151 17.1752 58.8473 17.0473 58.8473 16.9091V16.6023C58.8473 16.464 58.817 16.3352 58.7564 16.2159C58.6958 16.0966 58.5765 16.0369 58.3984 16.0369C58.228 16.0369 58.1096 16.0966 58.0433 16.2159C57.977 16.3352 57.9439 16.464 57.9439 16.6023ZM54.1314 13.5795V13.2727C54.1314 13.0379 54.1816 12.8229 54.282 12.6278C54.3823 12.4309 54.5272 12.2737 54.7166 12.1562C54.9079 12.0388 55.139 11.9801 55.4098 11.9801C55.6901 11.9801 55.925 12.0388 56.1143 12.1562C56.3037 12.2737 56.4477 12.4309 56.5462 12.6278C56.6446 12.8229 56.6939 13.0379 56.6939 13.2727V13.5795C56.6939 13.8144 56.6437 14.0294 56.5433 14.2244C56.4448 14.4195 56.3 14.5758 56.1087 14.6932C55.9193 14.8087 55.6863 14.8665 55.4098 14.8665C55.1333 14.8665 54.8994 14.8078 54.7081 14.6903C54.5187 14.571 54.3748 14.4148 54.2763 14.2216C54.1797 14.0265 54.1314 13.8125 54.1314 13.5795ZM54.9638 13.2727V13.5795C54.9638 13.7178 54.996 13.8456 55.0604 13.9631C55.1267 14.0805 55.2431 14.1392 55.4098 14.1392C55.584 14.1392 55.7024 14.0805 55.7649 13.9631C55.8293 13.8456 55.8615 13.7178 55.8615 13.5795V13.2727C55.8615 13.1345 55.8312 13.0057 55.7706 12.8864C55.71 12.767 55.5897 12.7074 55.4098 12.7074C55.2412 12.7074 55.1248 12.768 55.0604 12.8892C54.996 13.0104 54.9638 13.1383 54.9638 13.2727ZM54.5064 18L58.5064 12.1818H59.2507L55.2507 18H54.5064Z" fill="black"/>
<g filter="url(#filter2_d_2_1796)">
<circle cx="122.57" cy="144.57" r="13.5697" fill="#ECEAF8"/>
</g>
<path d="M113.577 142.102C113.876 142.102 114.164 142.152 114.44 142.253C114.719 142.353 114.967 142.513 115.185 142.733C115.404 142.953 115.578 143.244 115.705 143.608C115.833 143.97 115.899 144.414 115.901 144.94C115.901 145.435 115.845 145.876 115.733 146.264C115.623 146.651 115.465 146.979 115.259 147.25C115.052 147.521 114.803 147.727 114.511 147.869C114.22 148.009 113.894 148.08 113.534 148.08C113.146 148.08 112.803 148.005 112.506 147.855C112.208 147.704 111.969 147.498 111.787 147.239C111.607 146.977 111.498 146.684 111.46 146.358H112.673C112.721 146.57 112.82 146.735 112.972 146.852C113.123 146.968 113.311 147.026 113.534 147.026C113.913 147.026 114.201 146.861 114.398 146.531C114.595 146.2 114.694 145.746 114.696 145.17H114.656C114.569 145.341 114.452 145.488 114.304 145.611C114.156 145.732 113.987 145.826 113.795 145.892C113.606 145.958 113.404 145.991 113.19 145.991C112.848 145.991 112.542 145.911 112.273 145.75C112.004 145.589 111.792 145.367 111.636 145.085C111.481 144.803 111.403 144.481 111.403 144.119C111.402 143.729 111.491 143.382 111.673 143.077C111.855 142.772 112.109 142.533 112.435 142.361C112.762 142.187 113.143 142.1 113.577 142.102ZM113.585 143.068C113.394 143.068 113.223 143.114 113.074 143.205C112.926 143.295 112.809 143.418 112.722 143.571C112.636 143.724 112.595 143.896 112.597 144.085C112.597 144.277 112.638 144.449 112.722 144.602C112.807 144.754 112.922 144.875 113.068 144.966C113.216 145.055 113.384 145.099 113.574 145.099C113.716 145.099 113.848 145.073 113.969 145.02C114.09 144.967 114.195 144.894 114.284 144.801C114.375 144.706 114.446 144.598 114.497 144.474C114.548 144.351 114.574 144.221 114.574 144.082C114.572 143.899 114.528 143.73 114.443 143.577C114.358 143.423 114.241 143.3 114.091 143.207C113.941 143.115 113.773 143.068 113.585 143.068ZM118.903 148.08C118.479 148.08 118.101 148.007 117.77 147.861C117.44 147.713 117.18 147.51 116.989 147.253C116.799 146.993 116.702 146.694 116.696 146.355H117.935C117.942 146.497 117.989 146.622 118.074 146.73C118.161 146.836 118.277 146.919 118.42 146.977C118.564 147.036 118.726 147.065 118.906 147.065C119.094 147.065 119.259 147.032 119.403 146.966C119.547 146.9 119.66 146.808 119.741 146.69C119.823 146.573 119.864 146.437 119.864 146.284C119.864 146.129 119.82 145.991 119.733 145.872C119.648 145.751 119.525 145.656 119.364 145.588C119.205 145.52 119.015 145.486 118.795 145.486H118.253V144.582H118.795C118.981 144.582 119.145 144.55 119.287 144.486C119.431 144.421 119.543 144.332 119.622 144.219C119.702 144.103 119.741 143.969 119.741 143.815C119.741 143.67 119.706 143.542 119.636 143.432C119.568 143.32 119.472 143.233 119.347 143.17C119.223 143.108 119.08 143.077 118.915 143.077C118.748 143.077 118.596 143.107 118.457 143.168C118.319 143.226 118.208 143.311 118.125 143.42C118.042 143.53 117.997 143.659 117.991 143.807H116.812C116.818 143.472 116.914 143.176 117.099 142.92C117.285 142.665 117.535 142.465 117.849 142.321C118.166 142.175 118.523 142.102 118.92 142.102C119.322 142.102 119.673 142.175 119.974 142.321C120.276 142.467 120.509 142.664 120.676 142.912C120.845 143.158 120.928 143.435 120.926 143.741C120.928 144.067 120.827 144.339 120.622 144.557C120.42 144.775 120.155 144.913 119.83 144.972V145.017C120.258 145.072 120.583 145.221 120.807 145.463C121.032 145.704 121.144 146.005 121.142 146.366C121.144 146.698 121.048 146.992 120.855 147.25C120.664 147.508 120.4 147.71 120.062 147.858C119.725 148.006 119.339 148.08 118.903 148.08ZM122.581 148.074C122.393 148.074 122.232 148.008 122.098 147.875C121.965 147.741 121.899 147.58 121.899 147.392C121.899 147.206 121.965 147.047 122.098 146.915C122.232 146.782 122.393 146.716 122.581 146.716C122.763 146.716 122.922 146.782 123.058 146.915C123.195 147.047 123.263 147.206 123.263 147.392C123.263 147.517 123.231 147.632 123.166 147.736C123.104 147.838 123.021 147.92 122.919 147.983C122.817 148.044 122.704 148.074 122.581 148.074ZM126.208 148.08C125.784 148.08 125.406 148.007 125.075 147.861C124.745 147.713 124.485 147.51 124.293 147.253C124.104 146.993 124.006 146.694 124.001 146.355H125.239C125.247 146.497 125.293 146.622 125.379 146.73C125.466 146.836 125.581 146.919 125.725 146.977C125.869 147.036 126.031 147.065 126.211 147.065C126.398 147.065 126.564 147.032 126.708 146.966C126.852 146.9 126.965 146.808 127.046 146.69C127.128 146.573 127.168 146.437 127.168 146.284C127.168 146.129 127.125 145.991 127.038 145.872C126.952 145.751 126.829 145.656 126.668 145.588C126.509 145.52 126.32 145.486 126.1 145.486H125.558V144.582H126.1C126.286 144.582 126.45 144.55 126.592 144.486C126.736 144.421 126.847 144.332 126.927 144.219C127.006 144.103 127.046 143.969 127.046 143.815C127.046 143.67 127.011 143.542 126.941 143.432C126.873 143.32 126.776 143.233 126.651 143.17C126.528 143.108 126.384 143.077 126.219 143.077C126.053 143.077 125.9 143.107 125.762 143.168C125.624 143.226 125.513 143.311 125.43 143.42C125.346 143.53 125.302 143.659 125.296 143.807H124.117C124.123 143.472 124.219 143.176 124.404 142.92C124.59 142.665 124.84 142.465 125.154 142.321C125.47 142.175 125.827 142.102 126.225 142.102C126.627 142.102 126.978 142.175 127.279 142.321C127.58 142.467 127.814 142.664 127.981 142.912C128.149 143.158 128.233 143.435 128.231 143.741C128.233 144.067 128.131 144.339 127.927 144.557C127.724 144.775 127.46 144.913 127.134 144.972V145.017C127.562 145.072 127.888 145.221 128.112 145.463C128.337 145.704 128.449 146.005 128.447 146.366C128.449 146.698 128.353 146.992 128.16 147.25C127.969 147.508 127.704 147.71 127.367 147.858C127.03 148.006 126.644 148.08 126.208 148.08ZM132.516 146.909V146.602C132.516 146.369 132.565 146.155 132.663 145.96C132.764 145.763 132.909 145.606 133.098 145.489C133.289 145.369 133.522 145.31 133.797 145.31C134.075 145.31 134.309 145.368 134.499 145.486C134.69 145.603 134.834 145.76 134.93 145.957C135.029 146.152 135.078 146.367 135.078 146.602V146.909C135.078 147.142 135.029 147.357 134.93 147.554C134.832 147.749 134.687 147.905 134.496 148.023C134.304 148.142 134.071 148.202 133.797 148.202C133.518 148.202 133.285 148.142 133.095 148.023C132.906 147.905 132.762 147.749 132.663 147.554C132.565 147.357 132.516 147.142 132.516 146.909ZM133.342 146.602V146.909C133.342 147.044 133.375 147.17 133.439 147.29C133.505 147.409 133.625 147.469 133.797 147.469C133.969 147.469 134.087 147.41 134.149 147.293C134.214 147.175 134.246 147.047 134.246 146.909V146.602C134.246 146.464 134.215 146.335 134.155 146.216C134.094 146.097 133.975 146.037 133.797 146.037C133.626 146.037 133.508 146.097 133.442 146.216C133.375 146.335 133.342 146.464 133.342 146.602ZM129.53 143.58V143.273C129.53 143.038 129.58 142.823 129.68 142.628C129.781 142.431 129.926 142.274 130.115 142.156C130.306 142.039 130.537 141.98 130.808 141.98C131.089 141.98 131.323 142.039 131.513 142.156C131.702 142.274 131.846 142.431 131.945 142.628C132.043 142.823 132.092 143.038 132.092 143.273V143.58C132.092 143.814 132.042 144.029 131.942 144.224C131.843 144.42 131.698 144.576 131.507 144.693C131.318 144.809 131.085 144.866 130.808 144.866C130.532 144.866 130.298 144.808 130.107 144.69C129.917 144.571 129.773 144.415 129.675 144.222C129.578 144.027 129.53 143.812 129.53 143.58ZM130.362 143.273V143.58C130.362 143.718 130.394 143.846 130.459 143.963C130.525 144.08 130.642 144.139 130.808 144.139C130.982 144.139 131.101 144.08 131.163 143.963C131.228 143.846 131.26 143.718 131.26 143.58V143.273C131.26 143.134 131.23 143.006 131.169 142.886C131.108 142.767 130.988 142.707 130.808 142.707C130.64 142.707 130.523 142.768 130.459 142.889C130.394 143.01 130.362 143.138 130.362 143.273ZM129.905 148L133.905 142.182H134.649L130.649 148H129.905Z" fill="black"/>
<defs>
<filter id="filter0_d_2_1796" x="68" y="0" width="31.1393" height="31.1393" filterUnits="userSpaceOnUse" color-interpolation-filters="sRGB">
<feFlood flood-opacity="0" result="BackgroundImageFix"/>
<feColorMatrix in="SourceAlpha" type="matrix" values="0 0 0 0 0 0 0 0 0 0 0 0 0 0 0 0 0 0 127 0" result="hardAlpha"/>
<feOffset/>
<feGaussianBlur stdDeviation="1"/>
<feComposite in2="hardAlpha" operator="out"/>
<feColorMatrix type="matrix" values="0 0 0 0 0 0 0 0 0 0 0 0 0 0 0 0 0 0 0.25 0"/>
<feBlend mode="normal" in2="BackgroundImageFix" result="effect1_dropShadow_2_1796"/>
<feBlend mode="normal" in="SourceGraphic" in2="effect1_dropShadow_2_1796" result="shape"/>
</filter>
<filter id="filter1_d_2_1796" x="35" y="0" width="31.1393" height="31.1393" filterUnits="userSpaceOnUse" color-interpolation-filters="sRGB">
<feFlood flood-opacity="0" result="BackgroundImageFix"/>
<feColorMatrix in="SourceAlpha" type="matrix" values="0 0 0 0 0 0 0 0 0 0 0 0 0 0 0 0 0 0 127 0" result="hardAlpha"/>
<feOffset/>
<feGaussianBlur stdDeviation="1"/>
<feComposite in2="hardAlpha" operator="out"/>
<feColorMatrix type="matrix" values="0 0 0 0 0 0 0 0 0 0 0 0 0 0 0 0 0 0 0.25 0"/>
<feBlend mode="normal" in2="BackgroundImageFix" result="effect1_dropShadow_2_1796"/>
<feBlend mode="normal" in="SourceGraphic" in2="effect1_dropShadow_2_1796" result="shape"/>
</filter>
<filter id="filter2_d_2_1796" x="107" y="129" width="31.1393" height="31.1393" filterUnits="userSpaceOnUse" color-interpolation-filters="sRGB">
<feFlood flood-opacity="0" result="BackgroundImageFix"/>
<feColorMatrix in="SourceAlpha" type="matrix" values="0 0 0 0 0 0 0 0 0 0 0 0 0 0 0 0 0 0 127 0" result="hardAlpha"/>
<feOffset/>
<feGaussianBlur stdDeviation="1"/>
<feComposite in2="hardAlpha" operator="out"/>
<feColorMatrix type="matrix" values="0 0 0 0 0 0 0 0 0 0 0 0 0 0 0 0 0 0 0.25 0"/>
<feBlend mode="normal" in2="BackgroundImageFix" result="effect1_dropShadow_2_1796"/>
<feBlend mode="normal" in="SourceGraphic" in2="effect1_dropShadow_2_1796" result="shape"/>
</filter>
</defs>
</svg>
