<svg width="147" height="147" viewBox="0 0 147 147" fill="none" xmlns="http://www.w3.org/2000/svg">
<path d="M147 73.5C147 55.4597 140.365 38.0494 128.359 24.5844C116.353 11.1194 99.8139 2.54029 81.8916 0.480607C63.9692 -1.57907 45.9153 3.02458 31.1676 13.4149C16.4199 23.8053 6.00857 39.2566 1.91614 56.8266L36.9772 64.9931C39.0652 56.0287 44.3772 48.1453 51.9016 42.844C59.426 37.5428 68.6373 35.1939 77.7815 36.2448C86.9256 37.2957 95.3639 41.6728 101.49 48.5428C107.615 55.4128 111 64.2956 111 73.5H147Z" fill="#F4A79D"/>
<path d="M62.4012 0.842817C45.8009 3.37861 30.5695 11.5224 19.2415 23.9191C7.91353 36.3158 1.17216 52.2177 0.139187 68.9788L36.0706 71.1932C36.5977 62.6416 40.0372 54.5283 45.8168 48.2034C51.5964 41.8785 59.3676 37.7234 67.8373 36.4296L62.4012 0.842817Z" fill="#F4A79D"/>
<path d="M101.217 5.42654C113.744 10.5271 124.621 18.9855 132.65 29.8703C140.679 40.7552 145.548 53.6444 146.722 67.1189C147.897 80.5934 145.33 94.1307 139.305 106.24C133.28 118.35 124.031 128.562 112.575 135.753C101.119 142.943 87.9012 146.833 74.3766 146.995C60.852 147.156 47.5451 143.582 35.921 136.667C24.2969 129.752 14.8064 119.763 8.49439 107.8C2.18236 95.838 -0.706393 82.3658 0.146156 68.8671L36.0742 71.1363C35.6392 78.0234 37.1131 84.8971 40.3335 91.0004C43.554 97.1038 48.3961 102.2 54.3268 105.728C60.2576 109.257 67.0468 111.08 73.9472 110.998C80.8476 110.915 87.5915 108.931 93.4364 105.262C99.2813 101.593 104 96.3828 107.074 90.2044C110.148 84.026 111.458 77.1191 110.859 70.2443C110.26 63.3695 107.775 56.7933 103.679 51.2397C99.5824 45.6862 94.0331 41.3706 87.6417 38.7683L101.217 5.42654Z" fill="#344BFD"/>
<g filter="url(#filter0_d_2_1849)">
<circle cx="25.5697" cy="19.5697" r="13.5697" fill="#ECEAF8"/>
</g>
<path d="M16.6222 22.0795C16.1979 22.0795 15.8201 22.0066 15.4886 21.8608C15.1591 21.7131 14.8987 21.5104 14.7074 21.2528C14.518 20.9934 14.4205 20.6941 14.4148 20.3551H15.6534C15.661 20.4972 15.7074 20.6222 15.7926 20.7301C15.8797 20.8362 15.9953 20.9186 16.1392 20.9773C16.2831 21.036 16.4451 21.0653 16.625 21.0653C16.8125 21.0653 16.9782 21.0322 17.1222 20.9659C17.2661 20.8996 17.3788 20.8078 17.4602 20.6903C17.5417 20.5729 17.5824 20.4375 17.5824 20.2841C17.5824 20.1288 17.5388 19.9915 17.4517 19.8722C17.3665 19.7509 17.2434 19.6562 17.0824 19.5881C16.9233 19.5199 16.7339 19.4858 16.5142 19.4858H15.9716V18.5824H16.5142C16.6998 18.5824 16.8636 18.5502 17.0057 18.4858C17.1496 18.4214 17.2614 18.3324 17.3409 18.2188C17.4205 18.1032 17.4602 17.9688 17.4602 17.8153C17.4602 17.6695 17.4252 17.5417 17.3551 17.4318C17.2869 17.3201 17.1903 17.233 17.0653 17.1705C16.9422 17.108 16.7983 17.0767 16.6335 17.0767C16.4669 17.0767 16.3144 17.107 16.1761 17.1676C16.0379 17.2263 15.9271 17.3106 15.8438 17.4205C15.7604 17.5303 15.7159 17.6591 15.7102 17.8068H14.5312C14.5369 17.4716 14.6326 17.1761 14.8182 16.9205C15.0038 16.6648 15.2538 16.465 15.5682 16.321C15.8845 16.1752 16.2415 16.1023 16.6392 16.1023C17.0407 16.1023 17.392 16.1752 17.6932 16.321C17.9943 16.4669 18.2282 16.6638 18.3949 16.9119C18.5634 17.1581 18.6468 17.4347 18.6449 17.7415C18.6468 18.0672 18.5455 18.339 18.3409 18.5568C18.1383 18.7746 17.8741 18.9129 17.5483 18.9716V19.017C17.9763 19.072 18.3021 19.2206 18.5256 19.4631C18.7509 19.7036 18.8627 20.0047 18.8608 20.3665C18.8627 20.6979 18.767 20.9924 18.5739 21.25C18.3826 21.5076 18.1184 21.7102 17.7812 21.858C17.4441 22.0057 17.0578 22.0795 16.6222 22.0795ZM21.8956 22.0795C21.4714 22.0795 21.0935 22.0066 20.7621 21.8608C20.4325 21.7131 20.1721 21.5104 19.9808 21.2528C19.7914 20.9934 19.6939 20.6941 19.6882 20.3551H20.9268C20.9344 20.4972 20.9808 20.6222 21.0661 20.7301C21.1532 20.8362 21.2687 20.9186 21.4126 20.9773C21.5566 21.036 21.7185 21.0653 21.8984 21.0653C22.0859 21.0653 22.2517 21.0322 22.3956 20.9659C22.5395 20.8996 22.6522 20.8078 22.7337 20.6903C22.8151 20.5729 22.8558 20.4375 22.8558 20.2841C22.8558 20.1288 22.8123 19.9915 22.7251 19.8722C22.6399 19.7509 22.5168 19.6562 22.3558 19.5881C22.1967 19.5199 22.0073 19.4858 21.7876 19.4858H21.245V18.5824H21.7876C21.9732 18.5824 22.1371 18.5502 22.2791 18.4858C22.4231 18.4214 22.5348 18.3324 22.6143 18.2188C22.6939 18.1032 22.7337 17.9688 22.7337 17.8153C22.7337 17.6695 22.6986 17.5417 22.6286 17.4318C22.5604 17.3201 22.4638 17.233 22.3388 17.1705C22.2157 17.108 22.0717 17.0767 21.907 17.0767C21.7403 17.0767 21.5878 17.107 21.4496 17.1676C21.3113 17.2263 21.2005 17.3106 21.1172 17.4205C21.0339 17.5303 20.9893 17.6591 20.9837 17.8068H19.8047C19.8104 17.4716 19.906 17.1761 20.0916 16.9205C20.2772 16.6648 20.5272 16.465 20.8416 16.321C21.1579 16.1752 21.5149 16.1023 21.9126 16.1023C22.3142 16.1023 22.6655 16.1752 22.9666 16.321C23.2678 16.4669 23.5017 16.6638 23.6683 16.9119C23.8369 17.1581 23.9202 17.4347 23.9183 17.7415C23.9202 18.0672 23.8189 18.339 23.6143 18.5568C23.4117 18.7746 23.1475 18.9129 22.8217 18.9716V19.017C23.2498 19.072 23.5755 19.2206 23.799 19.4631C24.0244 19.7036 24.1361 20.0047 24.1342 20.3665C24.1361 20.6979 24.0405 20.9924 23.8473 21.25C23.656 21.5076 23.3918 21.7102 23.0547 21.858C22.7176 22.0057 22.3312 22.0795 21.8956 22.0795ZM25.5732 22.0739C25.3857 22.0739 25.2247 22.0076 25.0902 21.875C24.9576 21.7405 24.8913 21.5795 24.8913 21.392C24.8913 21.2064 24.9576 21.0473 25.0902 20.9148C25.2247 20.7822 25.3857 20.7159 25.5732 20.7159C25.755 20.7159 25.9141 20.7822 26.0504 20.9148C26.1868 21.0473 26.255 21.2064 26.255 21.392C26.255 21.517 26.2228 21.6316 26.1584 21.7358C26.0959 21.8381 26.0135 21.9205 25.9112 21.983C25.8089 22.0436 25.6963 22.0739 25.5732 22.0739ZM29.2003 22.0795C28.776 22.0795 28.3982 22.0066 28.0668 21.8608C27.7372 21.7131 27.4768 21.5104 27.2855 21.2528C27.0961 20.9934 26.9986 20.6941 26.9929 20.3551H28.2315C28.2391 20.4972 28.2855 20.6222 28.3707 20.7301C28.4579 20.8362 28.5734 20.9186 28.7173 20.9773C28.8613 21.036 29.0232 21.0653 29.2031 21.0653C29.3906 21.0653 29.5563 21.0322 29.7003 20.9659C29.8442 20.8996 29.9569 20.8078 30.0384 20.6903C30.1198 20.5729 30.1605 20.4375 30.1605 20.2841C30.1605 20.1288 30.117 19.9915 30.0298 19.8722C29.9446 19.7509 29.8215 19.6562 29.6605 19.5881C29.5014 19.5199 29.312 19.4858 29.0923 19.4858H28.5497V18.5824H29.0923C29.2779 18.5824 29.4418 18.5502 29.5838 18.4858C29.7277 18.4214 29.8395 18.3324 29.919 18.2188C29.9986 18.1032 30.0384 17.9688 30.0384 17.8153C30.0384 17.6695 30.0033 17.5417 29.9332 17.4318C29.8651 17.3201 29.7685 17.233 29.6435 17.1705C29.5204 17.108 29.3764 17.0767 29.2116 17.0767C29.045 17.0767 28.8925 17.107 28.7543 17.1676C28.616 17.2263 28.5052 17.3106 28.4219 17.4205C28.3385 17.5303 28.294 17.6591 28.2884 17.8068H27.1094C27.1151 17.4716 27.2107 17.1761 27.3963 16.9205C27.5819 16.6648 27.8319 16.465 28.1463 16.321C28.4626 16.1752 28.8196 16.1023 29.2173 16.1023C29.6188 16.1023 29.9702 16.1752 30.2713 16.321C30.5724 16.4669 30.8063 16.6638 30.973 16.9119C31.1416 17.1581 31.2249 17.4347 31.223 17.7415C31.2249 18.0672 31.1236 18.339 30.919 18.5568C30.7164 18.7746 30.4522 18.9129 30.1264 18.9716V19.017C30.5545 19.072 30.8802 19.2206 31.1037 19.4631C31.3291 19.7036 31.4408 20.0047 31.4389 20.3665C31.4408 20.6979 31.3452 20.9924 31.152 21.25C30.9607 21.5076 30.6965 21.7102 30.3594 21.858C30.0223 22.0057 29.6359 22.0795 29.2003 22.0795ZM35.5078 20.9091V20.6023C35.5078 20.3693 35.5571 20.1553 35.6555 19.9602C35.7559 19.7633 35.9008 19.6061 36.0902 19.4886C36.2815 19.3693 36.5144 19.3097 36.7891 19.3097C37.0675 19.3097 37.3014 19.3684 37.4908 19.4858C37.6821 19.6032 37.826 19.7604 37.9226 19.9574C38.0211 20.1525 38.0703 20.3674 38.0703 20.6023V20.9091C38.0703 21.142 38.0211 21.357 37.9226 21.554C37.8241 21.7491 37.6792 21.9053 37.4879 22.0227C37.2966 22.142 37.0637 22.2017 36.7891 22.2017C36.5107 22.2017 36.2768 22.142 36.0874 22.0227C35.898 21.9053 35.754 21.7491 35.6555 21.554C35.5571 21.357 35.5078 21.142 35.5078 20.9091ZM36.3345 20.6023V20.9091C36.3345 21.0436 36.3667 21.1705 36.4311 21.2898C36.4974 21.4091 36.6167 21.4688 36.7891 21.4688C36.9614 21.4688 37.0788 21.41 37.1413 21.2926C37.2057 21.1752 37.2379 21.0473 37.2379 20.9091V20.6023C37.2379 20.464 37.2076 20.3352 37.147 20.2159C37.0864 20.0966 36.9671 20.0369 36.7891 20.0369C36.6186 20.0369 36.5002 20.0966 36.4339 20.2159C36.3677 20.3352 36.3345 20.464 36.3345 20.6023ZM32.522 17.5795V17.2727C32.522 17.0379 32.5722 16.8229 32.6726 16.6278C32.773 16.4309 32.9179 16.2737 33.1072 16.1562C33.2985 16.0388 33.5296 15.9801 33.8004 15.9801C34.0807 15.9801 34.3156 16.0388 34.505 16.1562C34.6944 16.2737 34.8383 16.4309 34.9368 16.6278C35.0353 16.8229 35.0845 17.0379 35.0845 17.2727V17.5795C35.0845 17.8144 35.0343 18.0294 34.9339 18.2244C34.8355 18.4195 34.6906 18.5758 34.4993 18.6932C34.3099 18.8087 34.0769 18.8665 33.8004 18.8665C33.5239 18.8665 33.29 18.8078 33.0987 18.6903C32.9093 18.571 32.7654 18.4148 32.6669 18.2216C32.5703 18.0265 32.522 17.8125 32.522 17.5795ZM33.3544 17.2727V17.5795C33.3544 17.7178 33.3866 17.8456 33.451 17.9631C33.5173 18.0805 33.6338 18.1392 33.8004 18.1392C33.9747 18.1392 34.093 18.0805 34.1555 17.9631C34.2199 17.8456 34.2521 17.7178 34.2521 17.5795V17.2727C34.2521 17.1345 34.2218 17.0057 34.1612 16.8864C34.1006 16.767 33.9804 16.7074 33.8004 16.7074C33.6319 16.7074 33.5154 16.768 33.451 16.8892C33.3866 17.0104 33.3544 17.1383 33.3544 17.2727ZM32.897 22L36.897 16.1818H37.6413L33.6413 22H32.897Z" fill="black"/>
<g filter="url(#filter1_d_2_1849)">
<circle cx="122.57" cy="125.57" r="13.5697" fill="#ECEAF8"/>
</g>
<path d="M113.705 129.08C113.405 129.078 113.116 129.027 112.838 128.929C112.562 128.83 112.313 128.67 112.094 128.449C111.874 128.227 111.7 127.934 111.571 127.568C111.444 127.203 111.381 126.754 111.381 126.222C111.383 125.733 111.438 125.296 111.548 124.912C111.66 124.526 111.819 124.198 112.026 123.929C112.234 123.66 112.483 123.455 112.773 123.315C113.063 123.173 113.387 123.102 113.747 123.102C114.135 123.102 114.478 123.178 114.776 123.33C115.073 123.479 115.312 123.683 115.491 123.94C115.673 124.198 115.783 124.487 115.821 124.807H114.608C114.561 124.604 114.461 124.445 114.31 124.33C114.158 124.214 113.971 124.156 113.747 124.156C113.368 124.156 113.08 124.321 112.884 124.651C112.688 124.98 112.589 125.428 112.585 125.994H112.625C112.712 125.822 112.83 125.675 112.977 125.554C113.127 125.431 113.296 125.337 113.486 125.273C113.677 125.206 113.879 125.173 114.091 125.173C114.436 125.173 114.742 125.255 115.011 125.418C115.28 125.579 115.492 125.8 115.648 126.082C115.803 126.365 115.881 126.687 115.881 127.051C115.881 127.445 115.789 127.795 115.605 128.102C115.423 128.409 115.169 128.65 114.841 128.824C114.515 128.996 114.136 129.081 113.705 129.08ZM113.699 128.114C113.888 128.114 114.058 128.068 114.207 127.977C114.357 127.886 114.474 127.763 114.56 127.608C114.645 127.453 114.688 127.278 114.688 127.085C114.688 126.892 114.645 126.719 114.56 126.565C114.476 126.412 114.361 126.29 114.213 126.199C114.065 126.108 113.897 126.062 113.707 126.062C113.565 126.062 113.434 126.089 113.312 126.142C113.193 126.195 113.088 126.269 112.997 126.364C112.908 126.458 112.838 126.568 112.787 126.693C112.736 126.816 112.71 126.948 112.71 127.088C112.71 127.276 112.753 127.447 112.838 127.602C112.925 127.758 113.043 127.882 113.19 127.974C113.34 128.067 113.509 128.114 113.699 128.114ZM118.986 129.08C118.687 129.078 118.398 129.027 118.119 128.929C117.843 128.83 117.595 128.67 117.375 128.449C117.155 128.227 116.981 127.934 116.852 127.568C116.725 127.203 116.662 126.754 116.662 126.222C116.664 125.733 116.72 125.296 116.83 124.912C116.941 124.526 117.1 124.198 117.307 123.929C117.515 123.66 117.764 123.455 118.054 123.315C118.344 123.173 118.669 123.102 119.028 123.102C119.417 123.102 119.759 123.178 120.057 123.33C120.354 123.479 120.593 123.683 120.773 123.94C120.955 124.198 121.064 124.487 121.102 124.807H119.889C119.842 124.604 119.742 124.445 119.591 124.33C119.439 124.214 119.252 124.156 119.028 124.156C118.65 124.156 118.362 124.321 118.165 124.651C117.97 124.98 117.87 125.428 117.866 125.994H117.906C117.993 125.822 118.111 125.675 118.259 125.554C118.408 125.431 118.578 125.337 118.767 125.273C118.958 125.206 119.16 125.173 119.372 125.173C119.717 125.173 120.024 125.255 120.293 125.418C120.562 125.579 120.774 125.8 120.929 126.082C121.084 126.365 121.162 126.687 121.162 127.051C121.162 127.445 121.07 127.795 120.886 128.102C120.705 128.409 120.45 128.65 120.122 128.824C119.796 128.996 119.418 129.081 118.986 129.08ZM118.98 128.114C119.17 128.114 119.339 128.068 119.489 127.977C119.638 127.886 119.756 127.763 119.841 127.608C119.926 127.453 119.969 127.278 119.969 127.085C119.969 126.892 119.926 126.719 119.841 126.565C119.758 126.412 119.642 126.29 119.494 126.199C119.347 126.108 119.178 126.062 118.989 126.062C118.847 126.062 118.715 126.089 118.594 126.142C118.474 126.195 118.369 126.269 118.278 126.364C118.189 126.458 118.119 126.568 118.068 126.693C118.017 126.816 117.991 126.948 117.991 127.088C117.991 127.276 118.034 127.447 118.119 127.602C118.206 127.758 118.324 127.882 118.472 127.974C118.621 128.067 118.791 128.114 118.98 128.114ZM122.511 129.074C122.323 129.074 122.162 129.008 122.028 128.875C121.895 128.741 121.829 128.58 121.829 128.392C121.829 128.206 121.895 128.047 122.028 127.915C122.162 127.782 122.323 127.716 122.511 127.716C122.692 127.716 122.852 127.782 122.988 127.915C123.124 128.047 123.192 128.206 123.192 128.392C123.192 128.517 123.16 128.632 123.096 128.736C123.033 128.838 122.951 128.92 122.849 128.983C122.746 129.044 122.634 129.074 122.511 129.074ZM124.186 129L126.598 124.227V124.188H123.788V123.182H127.871V124.202L125.456 129H124.186ZM131.898 127.909V127.602C131.898 127.369 131.948 127.155 132.046 126.96C132.147 126.763 132.291 126.606 132.481 126.489C132.672 126.369 132.905 126.31 133.18 126.31C133.458 126.31 133.692 126.368 133.881 126.486C134.073 126.603 134.217 126.76 134.313 126.957C134.412 127.152 134.461 127.367 134.461 127.602V127.909C134.461 128.142 134.412 128.357 134.313 128.554C134.215 128.749 134.07 128.905 133.879 129.023C133.687 129.142 133.454 129.202 133.18 129.202C132.901 129.202 132.667 129.142 132.478 129.023C132.289 128.905 132.145 128.749 132.046 128.554C131.948 128.357 131.898 128.142 131.898 127.909ZM132.725 127.602V127.909C132.725 128.044 132.757 128.17 132.822 128.29C132.888 128.409 133.007 128.469 133.18 128.469C133.352 128.469 133.469 128.41 133.532 128.293C133.596 128.175 133.629 128.047 133.629 127.909V127.602C133.629 127.464 133.598 127.335 133.538 127.216C133.477 127.097 133.358 127.037 133.18 127.037C133.009 127.037 132.891 127.097 132.825 127.216C132.758 127.335 132.725 127.464 132.725 127.602ZM128.913 124.58V124.273C128.913 124.038 128.963 123.823 129.063 123.628C129.164 123.431 129.308 123.274 129.498 123.156C129.689 123.039 129.92 122.98 130.191 122.98C130.471 122.98 130.706 123.039 130.896 123.156C131.085 123.274 131.229 123.431 131.327 123.628C131.426 123.823 131.475 124.038 131.475 124.273V124.58C131.475 124.814 131.425 125.029 131.325 125.224C131.226 125.42 131.081 125.576 130.89 125.693C130.701 125.809 130.468 125.866 130.191 125.866C129.915 125.866 129.681 125.808 129.489 125.69C129.3 125.571 129.156 125.415 129.058 125.222C128.961 125.027 128.913 124.812 128.913 124.58ZM129.745 124.273V124.58C129.745 124.718 129.777 124.846 129.842 124.963C129.908 125.08 130.024 125.139 130.191 125.139C130.365 125.139 130.484 125.08 130.546 124.963C130.611 124.846 130.643 124.718 130.643 124.58V124.273C130.643 124.134 130.612 124.006 130.552 123.886C130.491 123.767 130.371 123.707 130.191 123.707C130.022 123.707 129.906 123.768 129.842 123.889C129.777 124.01 129.745 124.138 129.745 124.273ZM129.288 129L133.288 123.182H134.032L130.032 129H129.288Z" fill="black"/>
<defs>
<filter id="filter0_d_2_1849" x="10" y="4" width="31.1393" height="31.1393" filterUnits="userSpaceOnUse" color-interpolation-filters="sRGB">
<feFlood flood-opacity="0" result="BackgroundImageFix"/>
<feColorMatrix in="SourceAlpha" type="matrix" values="0 0 0 0 0 0 0 0 0 0 0 0 0 0 0 0 0 0 127 0" result="hardAlpha"/>
<feOffset/>
<feGaussianBlur stdDeviation="1"/>
<feComposite in2="hardAlpha" operator="out"/>
<feColorMatrix type="matrix" values="0 0 0 0 0 0 0 0 0 0 0 0 0 0 0 0 0 0 0.25 0"/>
<feBlend mode="normal" in2="BackgroundImageFix" result="effect1_dropShadow_2_1849"/>
<feBlend mode="normal" in="SourceGraphic" in2="effect1_dropShadow_2_1849" result="shape"/>
</filter>
<filter id="filter1_d_2_1849" x="107" y="110" width="31.1393" height="31.1393" filterUnits="userSpaceOnUse" color-interpolation-filters="sRGB">
<feFlood flood-opacity="0" result="BackgroundImageFix"/>
<feColorMatrix in="SourceAlpha" type="matrix" values="0 0 0 0 0 0 0 0 0 0 0 0 0 0 0 0 0 0 127 0" result="hardAlpha"/>
<feOffset/>
<feGaussianBlur stdDeviation="1"/>
<feComposite in2="hardAlpha" operator="out"/>
<feColorMatrix type="matrix" values="0 0 0 0 0 0 0 0 0 0 0 0 0 0 0 0 0 0 0.25 0"/>
<feBlend mode="normal" in2="BackgroundImageFix" result="effect1_dropShadow_2_1849"/>
<feBlend mode="normal" in="SourceGraphic" in2="effect1_dropShadow_2_1849" result="shape"/>
</filter>
</defs>
</svg>
