<svg width="244" height="158" viewBox="0 0 244 158" fill="none" xmlns="http://www.w3.org/2000/svg">
<path d="M51.206 147.727H52.9283L54.5866 150.859H54.6577L56.3161 147.727H58.0384L55.3857 152.429V155H53.8587V152.429L51.206 147.727ZM60.1717 155.107C59.6201 155.107 59.1431 154.989 58.7406 154.755C58.3405 154.518 58.0315 154.189 57.8137 153.768C57.5959 153.344 57.487 152.853 57.487 152.294C57.487 151.731 57.5959 151.238 57.8137 150.817C58.0315 150.393 58.3405 150.064 58.7406 149.83C59.1431 149.593 59.6201 149.474 60.1717 149.474C60.7233 149.474 61.1992 149.593 61.5993 149.83C62.0017 150.064 62.3118 150.393 62.5297 150.817C62.7475 151.238 62.8564 151.731 62.8564 152.294C62.8564 152.853 62.7475 153.344 62.5297 153.768C62.3118 154.189 62.0017 154.518 61.5993 154.755C61.1992 154.989 60.7233 155.107 60.1717 155.107ZM60.1788 153.935C60.4297 153.935 60.6393 153.864 60.8074 153.722C60.9754 153.577 61.1021 153.381 61.1873 153.132C61.2749 152.884 61.3187 152.601 61.3187 152.283C61.3187 151.966 61.2749 151.683 61.1873 151.435C61.1021 151.186 60.9754 150.99 60.8074 150.845C60.6393 150.701 60.4297 150.629 60.1788 150.629C59.9255 150.629 59.7124 150.701 59.5396 150.845C59.3691 150.99 59.2401 151.186 59.1525 151.435C59.0673 151.683 59.0247 151.966 59.0247 152.283C59.0247 152.601 59.0673 152.884 59.1525 153.132C59.2401 153.381 59.3691 153.577 59.5396 153.722C59.7124 153.864 59.9255 153.935 60.1788 153.935ZM67.3379 152.678V149.545H68.8507V155H67.3983V154.009H67.3414C67.2183 154.329 67.0136 154.586 66.7271 154.78C66.443 154.974 66.0962 155.071 65.6866 155.071C65.322 155.071 65.0012 154.988 64.7243 154.822C64.4473 154.657 64.2306 154.421 64.0744 154.116C63.9205 153.81 63.8424 153.445 63.84 153.018V149.545H65.3528V152.749C65.3552 153.071 65.4416 153.325 65.612 153.512C65.7825 153.699 66.0109 153.793 66.2974 153.793C66.4797 153.793 66.6502 153.751 66.8088 153.668C66.9674 153.583 67.0952 153.458 67.1923 153.292C67.2917 153.126 67.3403 152.921 67.3379 152.678ZM70.0607 155V149.545H71.5273V150.497H71.5842C71.6836 150.159 71.8505 149.903 72.0849 149.73C72.3192 149.555 72.5891 149.467 72.8945 149.467C72.9703 149.467 73.052 149.472 73.1396 149.482C73.2272 149.491 73.3041 149.504 73.3704 149.521V150.863C73.2994 150.842 73.2011 150.823 73.0756 150.806C72.9502 150.79 72.8353 150.781 72.7312 150.781C72.5086 150.781 72.3098 150.83 72.1346 150.927C71.9618 151.022 71.8245 151.154 71.7227 151.325C71.6232 151.495 71.5735 151.692 71.5735 151.914V155H70.0607ZM78.9315 155.107C78.3728 155.107 77.8922 154.988 77.4897 154.751C77.0896 154.512 76.7818 154.181 76.5664 153.757C76.3533 153.333 76.2468 152.846 76.2468 152.294C76.2468 151.735 76.3545 151.245 76.57 150.824C76.7878 150.4 77.0967 150.07 77.4968 149.833C77.8969 149.594 78.3728 149.474 78.9244 149.474C79.4002 149.474 79.8169 149.561 80.1744 149.734C80.5318 149.906 80.8147 150.149 81.0231 150.462C81.2314 150.774 81.3462 151.141 81.3675 151.562H79.94C79.8997 151.29 79.7932 151.071 79.6204 150.906C79.4499 150.737 79.2262 150.653 78.9492 150.653C78.7148 150.653 78.5101 150.717 78.3349 150.845C78.1621 150.971 78.0271 151.154 77.93 151.396C77.833 151.637 77.7844 151.929 77.7844 152.273C77.7844 152.621 77.8318 152.917 77.9265 153.161C78.0236 153.404 78.1597 153.59 78.3349 153.718C78.5101 153.846 78.7148 153.91 78.9492 153.91C79.122 153.91 79.2771 153.874 79.4144 153.803C79.5541 153.732 79.6689 153.629 79.7589 153.494C79.8512 153.357 79.9116 153.192 79.94 153.001H81.3675C81.3439 153.417 81.2302 153.784 81.0266 154.102C80.8254 154.416 80.5472 154.663 80.1921 154.84C79.837 155.018 79.4168 155.107 78.9315 155.107ZM84.8006 155.107C84.249 155.107 83.772 154.989 83.3695 154.755C82.9694 154.518 82.6605 154.189 82.4426 153.768C82.2248 153.344 82.1159 152.853 82.1159 152.294C82.1159 151.731 82.2248 151.238 82.4426 150.817C82.6605 150.393 82.9694 150.064 83.3695 149.83C83.772 149.593 84.249 149.474 84.8006 149.474C85.3522 149.474 85.8281 149.593 86.2282 149.83C86.6306 150.064 86.9408 150.393 87.1586 150.817C87.3764 151.238 87.4853 151.731 87.4853 152.294C87.4853 152.853 87.3764 153.344 87.1586 153.768C86.9408 154.189 86.6306 154.518 86.2282 154.755C85.8281 154.989 85.3522 155.107 84.8006 155.107ZM84.8077 153.935C85.0587 153.935 85.2682 153.864 85.4363 153.722C85.6043 153.577 85.731 153.381 85.8162 153.132C85.9038 152.884 85.9476 152.601 85.9476 152.283C85.9476 151.966 85.9038 151.683 85.8162 151.435C85.731 151.186 85.6043 150.99 85.4363 150.845C85.2682 150.701 85.0587 150.629 84.8077 150.629C84.5544 150.629 84.3413 150.701 84.1685 150.845C83.998 150.99 83.869 151.186 83.7814 151.435C83.6962 151.683 83.6536 151.966 83.6536 152.283C83.6536 152.601 83.6962 152.884 83.7814 153.132C83.869 153.381 83.998 153.577 84.1685 153.722C84.3413 153.864 84.5544 153.935 84.8077 153.935ZM88.4689 155V149.545H89.9107V150.508H89.9746C90.0882 150.188 90.2776 149.936 90.5428 149.751C90.8079 149.567 91.1252 149.474 91.4945 149.474C91.8685 149.474 92.187 149.568 92.4498 149.755C92.7125 149.94 92.8877 150.191 92.9753 150.508H93.0321C93.1434 150.195 93.3446 149.946 93.6358 149.759C93.9294 149.569 94.2762 149.474 94.6763 149.474C95.1853 149.474 95.5984 149.637 95.9157 149.961C96.2353 150.283 96.3951 150.74 96.3951 151.332V155H94.8858V151.63C94.8858 151.327 94.8053 151.1 94.6444 150.948C94.4834 150.797 94.2821 150.721 94.0407 150.721C93.766 150.721 93.5518 150.808 93.3979 150.984C93.244 151.156 93.1671 151.385 93.1671 151.669V155H91.7005V151.598C91.7005 151.33 91.6235 151.117 91.4696 150.959C91.3181 150.8 91.1181 150.721 90.8695 150.721C90.7014 150.721 90.5499 150.763 90.415 150.849C90.2824 150.932 90.177 151.049 90.0989 151.2C90.0208 151.349 89.9817 151.525 89.9817 151.726V155H88.4689ZM97.59 157.045V149.545H99.0815V150.462H99.149C99.2153 150.315 99.3111 150.166 99.4366 150.014C99.5645 149.86 99.7302 149.732 99.9338 149.631C100.14 149.527 100.395 149.474 100.701 149.474C101.099 149.474 101.465 149.579 101.802 149.787C102.138 149.993 102.407 150.304 102.608 150.721C102.809 151.135 102.91 151.655 102.91 152.28C102.91 152.888 102.811 153.402 102.615 153.821C102.421 154.238 102.156 154.554 101.819 154.769C101.486 154.982 101.112 155.089 100.697 155.089C100.404 155.089 100.154 155.04 99.948 154.943C99.7444 154.846 99.5775 154.724 99.4473 154.577C99.3171 154.428 99.2176 154.278 99.149 154.126H99.1028V157.045H97.59ZM99.0708 152.273C99.0708 152.597 99.1158 152.88 99.2058 153.121C99.2958 153.363 99.426 153.551 99.5964 153.686C99.7669 153.819 99.974 153.885 100.218 153.885C100.464 153.885 100.672 153.817 100.843 153.683C101.013 153.545 101.142 153.356 101.23 153.114C101.32 152.871 101.365 152.59 101.365 152.273C101.365 151.958 101.321 151.681 101.233 151.442C101.146 151.203 101.017 151.016 100.846 150.881C100.676 150.746 100.466 150.678 100.218 150.678C99.9717 150.678 99.7633 150.743 99.5929 150.874C99.4248 151.004 99.2958 151.188 99.2058 151.428C99.1158 151.667 99.0708 151.948 99.0708 152.273ZM105.474 155.103C105.126 155.103 104.815 155.043 104.543 154.922C104.271 154.799 104.055 154.618 103.897 154.379C103.741 154.137 103.662 153.836 103.662 153.477C103.662 153.174 103.718 152.919 103.829 152.713C103.941 152.507 104.092 152.341 104.284 152.216C104.476 152.09 104.693 151.996 104.937 151.932C105.184 151.868 105.442 151.823 105.711 151.797C106.029 151.764 106.284 151.733 106.479 151.705C106.673 151.674 106.814 151.629 106.901 151.57C106.989 151.51 107.032 151.423 107.032 151.307V151.286C107.032 151.061 106.961 150.887 106.819 150.763C106.68 150.64 106.481 150.579 106.223 150.579C105.951 150.579 105.734 150.639 105.573 150.76C105.412 150.878 105.305 151.027 105.253 151.207L103.854 151.094C103.925 150.762 104.065 150.476 104.273 150.234C104.482 149.991 104.75 149.804 105.079 149.673C105.411 149.541 105.794 149.474 106.23 149.474C106.533 149.474 106.823 149.51 107.1 149.581C107.379 149.652 107.627 149.762 107.842 149.911C108.06 150.06 108.232 150.252 108.357 150.487C108.483 150.719 108.545 150.997 108.545 151.321V155H107.111V154.244H107.068C106.98 154.414 106.863 154.564 106.716 154.695C106.57 154.822 106.393 154.923 106.187 154.996C105.981 155.067 105.743 155.103 105.474 155.103ZM105.907 154.059C106.129 154.059 106.326 154.015 106.496 153.928C106.667 153.838 106.8 153.717 106.898 153.565C106.995 153.414 107.043 153.242 107.043 153.05V152.472C106.996 152.502 106.931 152.531 106.848 152.557C106.767 152.58 106.676 152.603 106.574 152.624C106.473 152.643 106.371 152.661 106.269 152.678C106.167 152.692 106.075 152.705 105.992 152.717C105.814 152.743 105.659 152.784 105.527 152.841C105.394 152.898 105.291 152.975 105.218 153.072C105.144 153.166 105.108 153.285 105.108 153.427C105.108 153.633 105.182 153.79 105.331 153.899C105.483 154.006 105.675 154.059 105.907 154.059ZM111.232 151.847V155H109.719V149.545H111.161V150.508H111.225C111.345 150.191 111.548 149.94 111.832 149.755C112.116 149.568 112.46 149.474 112.865 149.474C113.244 149.474 113.574 149.557 113.856 149.723C114.138 149.889 114.357 150.125 114.513 150.433C114.669 150.739 114.747 151.103 114.747 151.527V155H113.235V151.797C113.237 151.463 113.152 151.203 112.979 151.016C112.806 150.826 112.568 150.732 112.265 150.732C112.061 150.732 111.882 150.775 111.725 150.863C111.571 150.951 111.451 151.078 111.363 151.246C111.278 151.412 111.234 151.612 111.232 151.847ZM116.678 157.045C116.487 157.045 116.307 157.03 116.138 156.999C115.973 156.971 115.835 156.934 115.727 156.889L116.067 155.76C116.245 155.814 116.405 155.844 116.547 155.849C116.691 155.853 116.816 155.82 116.92 155.749C117.026 155.678 117.113 155.558 117.179 155.387L117.268 155.156L115.311 149.545H116.902L118.031 153.551H118.088L119.228 149.545H120.83L118.71 155.589C118.608 155.883 118.469 156.139 118.294 156.357C118.121 156.577 117.902 156.746 117.637 156.864C117.372 156.985 117.052 157.045 116.678 157.045Z" fill="#767676"/>
<path d="M3.44105 135.894C2.83026 135.892 2.30469 135.741 1.86435 135.443C1.42637 135.145 1.08902 134.713 0.852273 134.147C0.617898 133.581 0.501894 132.9 0.504261 132.105C0.504261 131.312 0.621449 130.636 0.855824 130.077C1.09257 129.519 1.42992 129.094 1.8679 128.802C2.30824 128.509 2.83262 128.362 3.44105 128.362C4.04948 128.362 4.57268 128.509 5.01065 128.802C5.45099 129.096 5.78954 129.522 6.02628 130.081C6.26302 130.637 6.38021 131.312 6.37784 132.105C6.37784 132.903 6.25947 133.585 6.02273 134.15C5.78835 134.716 5.45218 135.148 5.0142 135.447C4.57623 135.745 4.05185 135.894 3.44105 135.894ZM3.44105 134.619C3.85772 134.619 4.19034 134.41 4.43892 133.991C4.6875 133.572 4.81061 132.943 4.80824 132.105C4.80824 131.553 4.75142 131.094 4.63778 130.727C4.52652 130.36 4.3679 130.084 4.16193 129.9C3.95833 129.715 3.71804 129.623 3.44105 129.623C3.02675 129.623 2.69531 129.83 2.44673 130.244C2.19815 130.658 2.07268 131.279 2.07031 132.105C2.07031 132.664 2.12595 133.13 2.23722 133.504C2.35085 133.876 2.51065 134.155 2.71662 134.342C2.92259 134.527 3.16406 134.619 3.44105 134.619Z" fill="#767676"/>
<path d="M0.479403 71.5886V70.3777L3.51562 65.5943H4.55966V67.2704H3.94176L2.0277 70.2995V70.3564H6.34233V71.5886H0.479403ZM3.97017 72.867V71.2193L3.99858 70.6831V65.5943H5.44034V72.867H3.97017ZM10.2184 73.0268C9.6076 73.0244 9.08203 72.8741 8.64169 72.5758C8.20372 72.2775 7.86636 71.8455 7.62962 71.2796C7.39524 70.7138 7.27924 70.0332 7.28161 69.2377C7.28161 68.4447 7.39879 67.7688 7.63317 67.21C7.86991 66.6513 8.20727 66.2264 8.64524 65.9352C9.08558 65.6416 9.60997 65.4948 10.2184 65.4948C10.8268 65.4948 11.35 65.6416 11.788 65.9352C12.2283 66.2287 12.5669 66.6549 12.8036 67.2136C13.0404 67.7699 13.1576 68.4447 13.1552 69.2377C13.1552 70.0356 13.0368 70.7174 12.8001 71.2832C12.5657 71.849 12.2295 72.2811 11.7915 72.5794C11.3536 72.8777 10.8292 73.0268 10.2184 73.0268ZM10.2184 71.7519C10.6351 71.7519 10.9677 71.5424 11.2163 71.1234C11.4648 70.7044 11.5879 70.0758 11.5856 69.2377C11.5856 68.6861 11.5288 68.2269 11.4151 67.8599C11.3039 67.493 11.1452 67.2171 10.9393 67.0325C10.7357 66.8478 10.4954 66.7555 10.2184 66.7555C9.8041 66.7555 9.47266 66.9626 9.22408 67.3769C8.9755 67.7912 8.85002 68.4115 8.84766 69.2377C8.84766 69.7965 8.90329 70.2628 9.01456 70.6369C9.1282 71.0086 9.288 71.2879 9.49396 71.475C9.69993 71.6596 9.94141 71.7519 10.2184 71.7519Z" fill="#767676"/>
<path d="M0.877131 10L3.89205 4.03409V3.98438H0.379972V2.72727H5.48295V4.00213L2.46449 10H0.877131ZM9.23207 10.1598C8.62127 10.1574 8.0957 10.0071 7.65536 9.70881C7.21739 9.41051 6.88003 8.97846 6.64329 8.41264C6.40891 7.84683 6.29291 7.16619 6.29528 6.37074C6.29528 5.57765 6.41246 4.90175 6.64684 4.34304C6.88358 3.78433 7.22094 3.35937 7.65891 3.06818C8.09925 2.77462 8.62364 2.62784 9.23207 2.62784C9.84049 2.62784 10.3637 2.77462 10.8017 3.06818C11.242 3.36174 11.5806 3.78788 11.8173 4.34659C12.054 4.90294 12.1712 5.57765 12.1689 6.37074C12.1689 7.16856 12.0505 7.85038 11.8137 8.41619C11.5794 8.98201 11.2432 9.41406 10.8052 9.71236C10.3672 10.0107 9.84286 10.1598 9.23207 10.1598ZM9.23207 8.88494C9.64873 8.88494 9.98136 8.67543 10.2299 8.25639C10.4785 7.83736 10.6016 7.20881 10.5993 6.37074C10.5993 5.81913 10.5424 5.35985 10.4288 4.9929C10.3175 4.62595 10.1589 4.35014 9.95295 4.16548C9.74935 3.98082 9.50906 3.88849 9.23207 3.88849C8.81777 3.88849 8.48633 4.09564 8.23775 4.50994C7.98917 4.92424 7.8637 5.54451 7.86133 6.37074C7.86133 6.92945 7.91696 7.39583 8.02823 7.76989C8.14187 8.14157 8.30167 8.42093 8.50763 8.60795C8.7136 8.79261 8.95508 8.88494 9.23207 8.88494Z" fill="#767676"/>
<path d="M188.886 155H187.238L189.749 147.727H191.73L194.237 155H192.589L190.768 149.389H190.711L188.886 155ZM188.783 152.141H192.675V153.342H188.783V152.141ZM199.496 151.101L198.111 151.186C198.087 151.068 198.036 150.961 197.958 150.866C197.88 150.769 197.777 150.692 197.649 150.636C197.523 150.576 197.373 150.547 197.198 150.547C196.964 150.547 196.766 150.597 196.605 150.696C196.444 150.793 196.363 150.923 196.363 151.087C196.363 151.217 196.416 151.327 196.52 151.417C196.624 151.507 196.803 151.579 197.056 151.634L198.043 151.832C198.573 151.941 198.969 152.116 199.229 152.358C199.49 152.599 199.62 152.917 199.62 153.31C199.62 153.667 199.515 153.981 199.304 154.251C199.095 154.521 198.809 154.731 198.444 154.883C198.082 155.032 197.664 155.107 197.191 155.107C196.469 155.107 195.894 154.956 195.465 154.656C195.039 154.353 194.789 153.941 194.716 153.42L196.204 153.342C196.249 153.562 196.358 153.73 196.53 153.846C196.703 153.96 196.925 154.016 197.194 154.016C197.46 154.016 197.673 153.965 197.834 153.864C197.997 153.759 198.08 153.626 198.082 153.462C198.08 153.325 198.022 153.213 197.908 153.125C197.795 153.035 197.619 152.966 197.383 152.919L196.438 152.731C195.905 152.624 195.509 152.44 195.248 152.177C194.99 151.914 194.861 151.579 194.861 151.172C194.861 150.821 194.956 150.52 195.145 150.266C195.337 150.013 195.606 149.818 195.952 149.68C196.3 149.543 196.707 149.474 197.173 149.474C197.862 149.474 198.404 149.62 198.8 149.911C199.197 150.202 199.429 150.599 199.496 151.101ZM203.058 155.107C202.497 155.107 202.014 154.993 201.609 154.766C201.207 154.536 200.897 154.212 200.679 153.793C200.461 153.371 200.352 152.873 200.352 152.298C200.352 151.737 200.461 151.244 200.679 150.82C200.897 150.397 201.203 150.066 201.599 149.83C201.996 149.593 202.463 149.474 202.998 149.474C203.358 149.474 203.693 149.532 204.003 149.648C204.315 149.762 204.588 149.934 204.82 150.163C205.054 150.393 205.236 150.682 205.366 151.03C205.497 151.375 205.562 151.78 205.562 152.244V152.66H200.956V151.722H204.138C204.138 151.504 204.09 151.312 203.996 151.143C203.901 150.975 203.77 150.844 203.602 150.749C203.436 150.652 203.243 150.604 203.023 150.604C202.793 150.604 202.589 150.657 202.412 150.763C202.237 150.868 202.099 151.009 202 151.186C201.901 151.361 201.85 151.557 201.847 151.772V152.663C201.847 152.933 201.897 153.166 201.996 153.363C202.098 153.559 202.241 153.711 202.426 153.817C202.611 153.924 202.83 153.977 203.083 153.977C203.251 153.977 203.405 153.954 203.545 153.906C203.684 153.859 203.804 153.788 203.903 153.693C204.003 153.598 204.079 153.482 204.131 153.345L205.53 153.438C205.459 153.774 205.313 154.067 205.093 154.318C204.875 154.567 204.594 154.761 204.248 154.901C203.905 155.038 203.508 155.107 203.058 155.107ZM208.104 155.103C207.756 155.103 207.446 155.043 207.174 154.922C206.902 154.799 206.686 154.618 206.528 154.379C206.371 154.137 206.293 153.836 206.293 153.477C206.293 153.174 206.349 152.919 206.46 152.713C206.571 152.507 206.723 152.341 206.915 152.216C207.107 152.09 207.324 151.996 207.568 151.932C207.814 151.868 208.072 151.823 208.342 151.797C208.66 151.764 208.915 151.733 209.109 151.705C209.304 151.674 209.444 151.629 209.532 151.57C209.62 151.51 209.663 151.423 209.663 151.307V151.286C209.663 151.061 209.592 150.887 209.45 150.763C209.311 150.64 209.112 150.579 208.854 150.579C208.581 150.579 208.365 150.639 208.204 150.76C208.043 150.878 207.936 151.027 207.884 151.207L206.485 151.094C206.556 150.762 206.696 150.476 206.904 150.234C207.112 149.991 207.381 149.804 207.71 149.673C208.042 149.541 208.425 149.474 208.861 149.474C209.164 149.474 209.454 149.51 209.731 149.581C210.01 149.652 210.258 149.762 210.473 149.911C210.691 150.06 210.862 150.252 210.988 150.487C211.113 150.719 211.176 150.997 211.176 151.321V155H209.741V154.244H209.699C209.611 154.414 209.494 154.564 209.347 154.695C209.201 154.822 209.024 154.923 208.818 154.996C208.612 155.067 208.374 155.103 208.104 155.103ZM208.538 154.059C208.76 154.059 208.957 154.015 209.127 153.928C209.298 153.838 209.431 153.717 209.528 153.565C209.625 153.414 209.674 153.242 209.674 153.05V152.472C209.627 152.502 209.562 152.531 209.479 152.557C209.398 152.58 209.307 152.603 209.205 152.624C209.103 152.643 209.002 152.661 208.9 152.678C208.798 152.692 208.706 152.705 208.623 152.717C208.445 152.743 208.29 152.784 208.158 152.841C208.025 152.898 207.922 152.975 207.849 153.072C207.775 153.166 207.739 153.285 207.739 153.427C207.739 153.633 207.813 153.79 207.962 153.899C208.114 154.006 208.306 154.059 208.538 154.059ZM213.863 151.847V155H212.35V149.545H213.792V150.508H213.855C213.976 150.191 214.179 149.94 214.463 149.755C214.747 149.568 215.091 149.474 215.496 149.474C215.875 149.474 216.205 149.557 216.487 149.723C216.769 149.889 216.988 150.125 217.144 150.433C217.3 150.739 217.378 151.103 217.378 151.527V155H215.865V151.797C215.868 151.463 215.783 151.203 215.61 151.016C215.437 150.826 215.199 150.732 214.896 150.732C214.692 150.732 214.512 150.775 214.356 150.863C214.202 150.951 214.082 151.078 213.994 151.246C213.909 151.412 213.865 151.612 213.863 151.847Z" fill="#767676"/>
<line opacity="0.5" x1="25.0839" y1="5.5816" x2="243.734" y2="5.5816" stroke="#B1B1B1" stroke-width="0.5"/>
<line opacity="0.5" x1="25.0839" y1="68.9042" x2="243.734" y2="68.9042" stroke="#B1B1B1" stroke-width="0.5"/>
<line opacity="0.5" x1="25.0839" y1="132.227" x2="243.734" y2="132.227" stroke="#B1B1B1" stroke-width="0.5"/>
<rect x="50" y="54" width="72" height="78" rx="2.75934" fill="#344BFD"/>
<rect x="167" y="6" width="72" height="126" rx="2.75934" fill="#344BFD"/>
</svg>
