<svg width="244" height="162" viewBox="0 0 244 162" fill="none" xmlns="http://www.w3.org/2000/svg">
<path d="M3.44105 135.894C2.83026 135.892 2.30469 135.741 1.86435 135.443C1.42637 135.145 1.08902 134.713 0.852273 134.147C0.617898 133.581 0.501894 132.9 0.504261 132.105C0.504261 131.312 0.621449 130.636 0.855824 130.077C1.09257 129.518 1.42992 129.094 1.8679 128.802C2.30824 128.509 2.83262 128.362 3.44105 128.362C4.04948 128.362 4.57268 128.509 5.01065 128.802C5.45099 129.096 5.78954 129.522 6.02628 130.081C6.26302 130.637 6.38021 131.312 6.37784 132.105C6.37784 132.903 6.25947 133.585 6.02273 134.15C5.78835 134.716 5.45218 135.148 5.0142 135.446C4.57623 135.745 4.05185 135.894 3.44105 135.894ZM3.44105 134.619C3.85772 134.619 4.19034 134.41 4.43892 133.991C4.6875 133.571 4.81061 132.943 4.80824 132.105C4.80824 131.553 4.75142 131.094 4.63778 130.727C4.52652 130.36 4.3679 130.084 4.16193 129.9C3.95833 129.715 3.71804 129.623 3.44105 129.623C3.02675 129.623 2.69531 129.83 2.44673 130.244C2.19815 130.658 2.07268 131.279 2.07031 132.105C2.07031 132.664 2.12595 133.13 2.23722 133.504C2.35085 133.876 2.51065 134.155 2.71662 134.342C2.92259 134.527 3.16406 134.619 3.44105 134.619Z" fill="#767676"/>
<path d="M0.479403 71.5885V70.3776L3.51562 65.5942H4.55966V67.2704H3.94176L2.0277 70.2995V70.3563H6.34233V71.5885H0.479403ZM3.97017 72.8669V71.2192L3.99858 70.683V65.5942H5.44034V72.8669H3.97017ZM10.2184 73.0267C9.6076 73.0244 9.08203 72.874 8.64169 72.5758C8.20372 72.2775 7.86636 71.8454 7.62962 71.2796C7.39524 70.7138 7.27924 70.0331 7.28161 69.2377C7.28161 68.4446 7.39879 67.7687 7.63317 67.21C7.86991 66.6513 8.20727 66.2263 8.64524 65.9351C9.08558 65.6416 9.60997 65.4948 10.2184 65.4948C10.8268 65.4948 11.35 65.6416 11.788 65.9351C12.2283 66.2287 12.5669 66.6548 12.8036 67.2135C13.0404 67.7699 13.1576 68.4446 13.1552 69.2377C13.1552 70.0355 13.0368 70.7173 12.8001 71.2831C12.5657 71.849 12.2295 72.281 11.7915 72.5793C11.3536 72.8776 10.8292 73.0267 10.2184 73.0267ZM10.2184 71.7519C10.6351 71.7519 10.9677 71.5424 11.2163 71.1233C11.4648 70.7043 11.5879 70.0758 11.5856 69.2377C11.5856 68.6861 11.5288 68.2268 11.4151 67.8598C11.3039 67.4929 11.1452 67.2171 10.9393 67.0324C10.7357 66.8478 10.4954 66.7554 10.2184 66.7554C9.8041 66.7554 9.47266 66.9626 9.22408 67.3769C8.9755 67.7912 8.85002 68.4115 8.84766 69.2377C8.84766 69.7964 8.90329 70.2628 9.01456 70.6368C9.1282 71.0085 9.288 71.2879 9.49396 71.4749C9.69993 71.6596 9.94141 71.7519 10.2184 71.7519Z" fill="#767676"/>
<path d="M0.877131 10L3.89205 4.03409V3.98438H0.379972V2.72727H5.48295V4.00213L2.46449 10H0.877131ZM9.23207 10.1598C8.62127 10.1574 8.0957 10.0071 7.65536 9.70881C7.21739 9.41051 6.88003 8.97846 6.64329 8.41264C6.40891 7.84683 6.29291 7.16619 6.29528 6.37074C6.29528 5.57765 6.41246 4.90175 6.64684 4.34304C6.88358 3.78433 7.22094 3.35937 7.65891 3.06818C8.09925 2.77462 8.62364 2.62784 9.23207 2.62784C9.84049 2.62784 10.3637 2.77462 10.8017 3.06818C11.242 3.36174 11.5806 3.78788 11.8173 4.34659C12.054 4.90294 12.1712 5.57765 12.1689 6.37074C12.1689 7.16856 12.0505 7.85038 11.8137 8.41619C11.5794 8.98201 11.2432 9.41406 10.8052 9.71236C10.3672 10.0107 9.84286 10.1598 9.23207 10.1598ZM9.23207 8.88494C9.64873 8.88494 9.98136 8.67543 10.2299 8.25639C10.4785 7.83736 10.6016 7.20881 10.5993 6.37074C10.5993 5.81913 10.5424 5.35985 10.4288 4.9929C10.3175 4.62595 10.1589 4.35014 9.95295 4.16548C9.74935 3.98082 9.50906 3.88849 9.23207 3.88849C8.81777 3.88849 8.48633 4.09564 8.23775 4.50994C7.98917 4.92424 7.8637 5.54451 7.86133 6.37074C7.86133 6.92945 7.91696 7.39583 8.02823 7.76989C8.14187 8.14157 8.30167 8.42093 8.50763 8.60795C8.7136 8.79261 8.95508 8.88494 9.23207 8.88494Z" fill="#767676"/>
<line opacity="0.5" x1="25.0839" y1="5.5816" x2="243.734" y2="5.5816" stroke="#B1B1B1" stroke-width="0.5"/>
<line opacity="0.5" x1="25.0839" y1="68.9042" x2="243.734" y2="68.9042" stroke="#B1B1B1" stroke-width="0.5"/>
<line opacity="0.5" x1="25.0839" y1="132.227" x2="243.734" y2="132.227" stroke="#B1B1B1" stroke-width="0.5"/>
<path d="M51.7536 151.949V159.222H50.2159V153.409H50.1733L48.5078 154.453V153.089L50.3082 151.949H51.7536ZM56.3336 159.382C55.7228 159.379 55.1973 159.229 54.7569 158.931C54.319 158.632 53.9816 158.2 53.7449 157.635C53.5105 157.069 53.3945 156.388 53.3968 155.593C53.3968 154.8 53.514 154.124 53.7484 153.565C53.9851 153.006 54.3225 152.581 54.7605 152.29C55.2008 151.997 55.7252 151.85 56.3336 151.85C56.9421 151.85 57.4653 151.997 57.9032 152.29C58.3436 152.584 58.6821 153.01 58.9189 153.569C59.1556 154.125 59.2728 154.8 59.2704 155.593C59.2704 156.391 59.152 157.072 58.9153 157.638C58.6809 158.204 58.3448 158.636 57.9068 158.934C57.4688 159.233 56.9444 159.382 56.3336 159.382ZM56.3336 158.107C56.7503 158.107 57.0829 157.897 57.3315 157.478C57.5801 157.059 57.7032 156.431 57.7008 155.593C57.7008 155.041 57.644 154.582 57.5304 154.215C57.4191 153.848 57.2605 153.572 57.0545 153.387C56.8509 153.203 56.6106 153.11 56.3336 153.11C55.9193 153.11 55.5879 153.318 55.3393 153.732C55.0907 154.146 54.9653 154.766 54.9629 155.593C54.9629 156.151 55.0185 156.618 55.1298 156.992C55.2434 157.364 55.4032 157.643 55.6092 157.83C55.8152 158.015 56.0566 158.107 56.3336 158.107Z" fill="#767676"/>
<path d="M93.5905 151.949V159.222H92.0528V153.409H92.0102L90.3447 154.453V153.089L92.1452 151.949H93.5905ZM98.483 151.949V159.222H96.9454V153.409H96.9028L95.2373 154.453V153.089L97.0377 151.949H98.483Z" fill="#767676"/>
<path d="M133.427 151.949V159.222H131.89V153.409H131.847L130.182 154.453V153.089L131.982 151.949H133.427ZM135.156 159.222V158.114L137.745 155.717C137.965 155.504 138.15 155.312 138.299 155.142C138.45 154.971 138.565 154.804 138.643 154.641C138.721 154.475 138.76 154.297 138.76 154.105C138.76 153.892 138.712 153.708 138.615 153.554C138.518 153.398 138.385 153.279 138.217 153.196C138.049 153.11 137.858 153.068 137.645 153.068C137.423 153.068 137.229 153.113 137.063 153.203C136.897 153.293 136.769 153.422 136.679 153.59C136.589 153.758 136.544 153.958 136.544 154.19H135.085C135.085 153.714 135.193 153.301 135.408 152.951C135.623 152.6 135.925 152.329 136.314 152.137C136.702 151.946 137.149 151.85 137.656 151.85C138.177 151.85 138.63 151.942 139.016 152.127C139.404 152.309 139.706 152.562 139.922 152.887C140.137 153.211 140.245 153.583 140.245 154.002C140.245 154.276 140.19 154.548 140.081 154.815C139.975 155.083 139.784 155.38 139.51 155.706C139.235 156.031 138.848 156.42 138.348 156.875L137.287 157.915V157.965H140.341V159.222H135.156Z" fill="#767676"/>
<path d="M173.264 151.949V159.222H171.727V153.409H171.684L170.019 154.453V153.089L171.819 151.949H173.264ZM177.681 159.321C177.151 159.321 176.679 159.23 176.264 159.048C175.852 158.863 175.527 158.61 175.288 158.288C175.051 157.964 174.929 157.59 174.922 157.166H176.47C176.48 157.343 176.538 157.5 176.644 157.635C176.753 157.767 176.898 157.87 177.077 157.944C177.257 158.017 177.46 158.054 177.685 158.054C177.919 158.054 178.126 158.012 178.306 157.929C178.486 157.847 178.627 157.732 178.729 157.585C178.831 157.438 178.881 157.269 178.881 157.077C178.881 156.883 178.827 156.711 178.718 156.562C178.612 156.411 178.458 156.292 178.256 156.207C178.058 156.122 177.821 156.079 177.546 156.079H176.868V154.95H177.546C177.778 154.95 177.983 154.91 178.161 154.829C178.34 154.749 178.48 154.637 178.58 154.495C178.679 154.351 178.729 154.183 178.729 153.991C178.729 153.809 178.685 153.649 178.597 153.512C178.512 153.372 178.391 153.263 178.235 153.185C178.081 153.107 177.901 153.068 177.695 153.068C177.487 153.068 177.296 153.106 177.124 153.182C176.951 153.255 176.812 153.36 176.708 153.498C176.604 153.635 176.548 153.796 176.541 153.981H175.068C175.075 153.561 175.194 153.192 175.426 152.873C175.658 152.553 175.971 152.303 176.364 152.123C176.759 151.941 177.205 151.85 177.702 151.85C178.204 151.85 178.643 151.941 179.02 152.123C179.396 152.306 179.689 152.552 179.897 152.862C180.108 153.17 180.212 153.515 180.21 153.899C180.212 154.306 180.085 154.646 179.83 154.918C179.576 155.19 179.246 155.363 178.839 155.436V155.493C179.374 155.562 179.781 155.748 180.06 156.051C180.342 156.351 180.482 156.728 180.479 157.18C180.482 157.594 180.362 157.963 180.121 158.284C179.882 158.606 179.551 158.86 179.13 159.044C178.709 159.229 178.226 159.321 177.681 159.321Z" fill="#767676"/>
<path d="M214.101 151.949V159.222H212.564V153.409H212.521L210.856 154.453V153.089L212.656 151.949H214.101ZM215.72 157.944V156.733L218.756 151.949H219.8V153.625H219.182L217.268 156.655V156.711H221.583V157.944H215.72ZM219.211 159.222V157.574L219.239 157.038V151.949H220.681V159.222H219.211Z" fill="#767676"/>
<rect x="51.0574" y="86.6354" width="5.51868" height="44.5032" rx="2.75934" fill="#344BFD"/>
<rect x="91.4255" y="44" width="5.51868" height="87.1386" rx="2.75934" fill="#344BFD"/>
<rect x="131.794" y="74.1064" width="5.51868" height="57.0322" rx="2.75934" fill="#344BFD"/>
<rect x="172.162" y="57.1715" width="5.51868" height="73.9671" rx="2.75934" fill="#344BFD"/>
<rect x="212.53" y="86.6354" width="5.51868" height="44.5032" rx="2.75934" fill="#344BFD"/>
</svg>
