<svg width="187" height="187" viewBox="0 0 187 187" fill="none" xmlns="http://www.w3.org/2000/svg">
<path d="M139.812 159.712C141.163 161.641 143.83 162.118 145.69 160.672C158.737 150.528 168.583 136.789 173.984 121.104C179.848 104.073 180.17 85.6217 174.904 68.396C169.637 51.1702 159.053 36.0538 144.667 25.2134C130.281 14.373 112.833 8.36503 94.8229 8.05066C76.8128 7.7363 59.1655 13.1316 44.4102 23.4634C29.6549 33.7952 18.5492 48.5329 12.6848 65.5644C6.82038 82.5959 6.49832 101.047 11.7648 118.273C16.6148 134.136 25.9751 148.211 38.6608 158.804C40.4687 160.314 43.1507 159.93 44.5682 158.049C45.9857 156.168 45.6011 153.503 43.8016 151.983C32.5503 142.481 24.245 129.92 19.9217 115.779C15.1819 100.276 15.4718 83.6698 20.7497 68.3414C26.0277 53.0131 36.0228 39.7491 49.3026 30.4505C62.5823 21.1519 78.465 16.2961 94.6741 16.579C110.883 16.862 126.587 22.2691 139.534 32.0255C152.481 41.7818 162.007 55.3866 166.747 70.8898C171.487 86.393 171.197 102.999 165.919 118.327C161.105 132.308 152.366 144.572 140.79 153.676C138.939 155.132 138.461 157.782 139.812 159.712Z" fill="#E9EDF0"/>
<path d="M186.669 93.3343C186.669 144.881 144.881 186.669 93.3343 186.669C41.7872 186.669 0 144.881 0 93.3343C0 41.7872 41.7872 0 93.3343 0C144.881 0 186.669 41.7872 186.669 93.3343ZM25.134 93.3343C25.134 131 55.6683 161.535 93.3343 161.535C131 161.535 161.535 131 161.535 93.3343C161.535 55.6683 131 25.134 93.3343 25.134C55.6683 25.134 25.134 55.6683 25.134 93.3343Z" fill="#344BFD"/>
<circle opacity="0.9" cx="93.3342" cy="57.3156" r="15.7476" fill="#ECEAF8"/>
<path d="M93 49C94.0609 49 95.0783 49.4214 95.8284 50.1716C96.5786 50.9217 97 51.9391 97 53C97 54.0609 96.5786 55.0783 95.8284 55.8284C95.0783 56.5786 94.0609 57 93 57C91.9391 57 90.9217 56.5786 90.1716 55.8284C89.4214 55.0783 89 54.0609 89 53C89 51.9391 89.4214 50.9217 90.1716 50.1716C90.9217 49.4214 91.9391 49 93 49ZM93 59C97.42 59 101 60.79 101 63V65H85V63C85 60.79 88.58 59 93 59Z" fill="#344BFD"/>
<path d="M63.2607 87.1818V109H58.6477V91.5604H58.5199L53.5234 94.6925V90.6016L58.9247 87.1818H63.2607ZM77.0009 109.479C75.1685 109.472 73.5918 109.021 72.2708 108.126C70.9569 107.232 69.9448 105.935 69.2346 104.238C68.5314 102.54 68.1834 100.499 68.1905 98.1122C68.1905 95.733 68.5421 93.7053 69.2452 92.0291C69.9554 90.353 70.9675 89.0781 72.2814 88.2045C73.6025 87.3239 75.1756 86.8835 77.0009 86.8835C78.8262 86.8835 80.3958 87.3239 81.7097 88.2045C83.0307 89.0852 84.0463 90.3636 84.7566 92.0398C85.4668 93.7088 85.8184 95.733 85.8113 98.1122C85.8113 100.506 85.4561 102.551 84.7459 104.249C84.0428 105.946 83.0343 107.242 81.7203 108.137C80.4064 109.032 78.8333 109.479 77.0009 109.479ZM77.0009 105.655C78.2509 105.655 79.2488 105.026 79.9945 103.769C80.7402 102.512 81.1096 100.626 81.1025 98.1122C81.1025 96.4574 80.932 95.0795 80.5911 93.9787C80.2573 92.8778 79.7814 92.0504 79.1635 91.4964C78.5527 90.9425 77.8319 90.6655 77.0009 90.6655C75.758 90.6655 74.7637 91.2869 74.0179 92.5298C73.2722 93.7727 72.8958 95.6335 72.8887 98.1122C72.8887 99.7884 73.0556 101.188 73.3894 102.31C73.7303 103.425 74.2097 104.263 74.8276 104.824C75.4455 105.378 76.1699 105.655 77.0009 105.655ZM97.6552 109.479C95.8228 109.472 94.2461 109.021 92.9251 108.126C91.6112 107.232 90.5991 105.935 89.8888 104.238C89.1857 102.54 88.8377 100.499 88.8448 98.1122C88.8448 95.733 89.1964 93.7053 89.8995 92.0291C90.6097 90.353 91.6218 89.0781 92.9357 88.2045C94.2567 87.3239 95.8299 86.8835 97.6552 86.8835C99.4805 86.8835 101.05 87.3239 102.364 88.2045C103.685 89.0852 104.701 90.3636 105.411 92.0398C106.121 93.7088 106.473 95.733 106.466 98.1122C106.466 100.506 106.11 102.551 105.4 104.249C104.697 105.946 103.689 107.242 102.375 108.137C101.061 109.032 99.4876 109.479 97.6552 109.479ZM97.6552 105.655C98.9052 105.655 99.9031 105.026 100.649 103.769C101.395 102.512 101.764 100.626 101.757 98.1122C101.757 96.4574 101.586 95.0795 101.245 93.9787C100.912 92.8778 100.436 92.0504 99.8178 91.4964C99.207 90.9425 98.4862 90.6655 97.6552 90.6655C96.4123 90.6655 95.418 91.2869 94.6722 92.5298C93.9265 93.7727 93.5501 95.6335 93.543 98.1122C93.543 99.7884 93.7099 101.188 94.0437 102.31C94.3846 103.425 94.864 104.263 95.4819 104.824C96.0998 105.378 96.8242 105.655 97.6552 105.655ZM121.697 104.909V103.759C121.697 102.885 121.882 102.082 122.251 101.351C122.628 100.612 123.171 100.023 123.881 99.5824C124.599 99.1349 125.472 98.9112 126.502 98.9112C127.546 98.9112 128.423 99.1314 129.133 99.5717C129.851 100.012 130.39 100.602 130.753 101.34C131.122 102.072 131.307 102.878 131.307 103.759V104.909C131.307 105.783 131.122 106.589 130.753 107.327C130.383 108.059 129.84 108.645 129.123 109.085C128.405 109.533 127.532 109.756 126.502 109.756C125.458 109.756 124.581 109.533 123.871 109.085C123.16 108.645 122.621 108.059 122.251 107.327C121.882 106.589 121.697 105.783 121.697 104.909ZM124.797 103.759V104.909C124.797 105.413 124.918 105.889 125.16 106.337C125.408 106.784 125.856 107.008 126.502 107.008C127.148 107.008 127.589 106.788 127.823 106.347C128.064 105.907 128.185 105.428 128.185 104.909V103.759C128.185 103.24 128.072 102.757 127.844 102.31C127.617 101.862 127.17 101.638 126.502 101.638C125.863 101.638 125.419 101.862 125.17 102.31C124.922 102.757 124.797 103.24 124.797 103.759ZM110.501 92.4233V91.2727C110.501 90.392 110.689 89.5859 111.065 88.8544C111.442 88.1158 111.985 87.5263 112.695 87.0859C113.412 86.6456 114.279 86.4254 115.295 86.4254C116.346 86.4254 117.226 86.6456 117.937 87.0859C118.647 87.5263 119.187 88.1158 119.556 88.8544C119.925 89.5859 120.11 90.392 120.11 91.2727V92.4233C120.11 93.304 119.922 94.1101 119.545 94.8416C119.176 95.5732 118.633 96.1591 117.915 96.5994C117.205 97.0327 116.331 97.2493 115.295 97.2493C114.258 97.2493 113.381 97.0291 112.663 96.5888C111.953 96.1413 111.413 95.5554 111.044 94.831C110.682 94.0994 110.501 93.2969 110.501 92.4233ZM113.622 91.2727V92.4233C113.622 92.9418 113.743 93.4212 113.984 93.8615C114.233 94.3018 114.67 94.522 115.295 94.522C115.948 94.522 116.392 94.3018 116.626 93.8615C116.868 93.4212 116.988 92.9418 116.988 92.4233V91.2727C116.988 90.7543 116.875 90.2713 116.648 89.8239C116.42 89.3764 115.969 89.1527 115.295 89.1527C114.662 89.1527 114.226 89.38 113.984 89.8345C113.743 90.2891 113.622 90.7685 113.622 91.2727ZM111.907 109L126.907 87.1818H129.698L114.698 109H111.907Z" fill="#404040"/>
<path d="M62.2192 134.856V124.674H69.08V126.449H64.3719V128.875H68.727V130.65H64.3719V133.081H69.0999V134.856H62.2192ZM72.5216 127.22L73.9235 129.889L75.3603 127.22H77.5329L75.3206 131.038L77.5926 134.856H75.4299L73.9235 132.216L72.442 134.856H70.2545L72.5216 131.038L70.3341 127.22H72.5216ZM81.9676 135.005C81.1854 135.005 80.5126 134.839 79.9491 134.508C79.389 134.173 78.9581 133.709 78.6565 133.116C78.3582 132.523 78.2091 131.84 78.2091 131.068C78.2091 130.285 78.3599 129.599 78.6615 129.009C78.9664 128.416 79.3989 127.954 79.9591 127.622C80.5192 127.288 81.1854 127.12 81.9576 127.12C82.6238 127.12 83.2072 127.241 83.7076 127.483C84.2081 127.725 84.6042 128.065 84.8958 128.502C85.1875 128.94 85.3483 129.453 85.3781 130.043H83.3795C83.3232 129.662 83.174 129.356 82.9321 129.124C82.6934 128.888 82.3802 128.771 81.9924 128.771C81.6643 128.771 81.3776 128.86 81.1323 129.039C80.8904 129.215 80.7015 129.472 80.5656 129.81C80.4297 130.148 80.3617 130.557 80.3617 131.038C80.3617 131.525 80.428 131.939 80.5606 132.281C80.6965 132.622 80.8871 132.882 81.1323 133.061C81.3776 133.24 81.6643 133.33 81.9924 133.33C82.2344 133.33 82.4515 133.28 82.6437 133.181C82.8393 133.081 83 132.937 83.126 132.748C83.2552 132.556 83.3397 132.325 83.3795 132.057H85.3781C85.3449 132.64 85.1859 133.154 84.9008 133.598C84.6191 134.039 84.2296 134.384 83.7325 134.632C83.2353 134.881 82.647 135.005 81.9676 135.005ZM90.2142 135.005C89.4287 135.005 88.7526 134.846 88.1858 134.528C87.6223 134.206 87.1882 133.752 86.8832 133.166C86.5783 132.576 86.4258 131.878 86.4258 131.073C86.4258 130.287 86.5783 129.598 86.8832 129.004C87.1882 128.411 87.6174 127.949 88.1709 127.617C88.7277 127.286 89.3806 127.12 90.1297 127.12C90.6335 127.12 91.1025 127.201 91.5366 127.364C91.9741 127.523 92.3553 127.763 92.6801 128.085C93.0082 128.406 93.2634 128.811 93.4457 129.298C93.628 129.782 93.7192 130.348 93.7192 130.998V131.58H87.271V130.267H91.7256C91.7256 129.962 91.6593 129.692 91.5267 129.457C91.3941 129.221 91.2102 129.038 90.9749 128.905C90.7428 128.769 90.4727 128.701 90.1645 128.701C89.843 128.701 89.558 128.776 89.3094 128.925C89.0641 129.071 88.8719 129.268 88.7327 129.516C88.5935 129.762 88.5222 130.035 88.5189 130.337V131.585C88.5189 131.962 88.5885 132.289 88.7277 132.564C88.8702 132.839 89.0707 133.051 89.3293 133.2C89.5878 133.35 89.8944 133.424 90.249 133.424C90.4843 133.424 90.6998 133.391 90.8953 133.325C91.0909 133.258 91.2582 133.159 91.3974 133.026C91.5366 132.894 91.6427 132.731 91.7156 132.539L93.6744 132.668C93.575 133.139 93.3712 133.55 93.0629 133.901C92.758 134.249 92.3636 134.521 91.8797 134.717C91.3991 134.909 90.8439 135.005 90.2142 135.005ZM97.2192 124.674V134.856H95.1013V124.674H97.2192ZM101.034 124.674V134.856H98.9157V124.674H101.034ZM106.21 135.005C105.425 135.005 104.749 134.846 104.182 134.528C103.618 134.206 103.184 133.752 102.879 133.166C102.574 132.576 102.422 131.878 102.422 131.073C102.422 130.287 102.574 129.598 102.879 129.004C103.184 128.411 103.613 127.949 104.167 127.617C104.724 127.286 105.377 127.12 106.126 127.12C106.63 127.12 107.099 127.201 107.533 127.364C107.97 127.523 108.351 127.763 108.676 128.085C109.004 128.406 109.26 128.811 109.442 129.298C109.624 129.782 109.715 130.348 109.715 130.998V131.58H103.267V130.267H107.722C107.722 129.962 107.655 129.692 107.523 129.457C107.39 129.221 107.206 129.038 106.971 128.905C106.739 128.769 106.469 128.701 106.161 128.701C105.839 128.701 105.554 128.776 105.305 128.925C105.06 129.071 104.868 129.268 104.729 129.516C104.59 129.762 104.518 130.035 104.515 130.337V131.585C104.515 131.962 104.585 132.289 104.724 132.564C104.866 132.839 105.067 133.051 105.325 133.2C105.584 133.35 105.89 133.424 106.245 133.424C106.48 133.424 106.696 133.391 106.891 133.325C107.087 133.258 107.254 133.159 107.394 133.026C107.533 132.894 107.639 132.731 107.712 132.539L109.671 132.668C109.571 133.139 109.367 133.55 109.059 133.901C108.754 134.249 108.36 134.521 107.876 134.717C107.395 134.909 106.84 135.005 106.21 135.005ZM113.215 130.441V134.856H111.097V127.22H113.116V128.567H113.205C113.374 128.123 113.658 127.771 114.055 127.513C114.453 127.251 114.935 127.12 115.502 127.12C116.033 127.12 116.495 127.236 116.889 127.468C117.284 127.7 117.59 128.032 117.809 128.462C118.028 128.89 118.137 129.4 118.137 129.994V134.856H116.019V130.372C116.023 129.904 115.903 129.54 115.661 129.278C115.419 129.013 115.086 128.88 114.662 128.88C114.377 128.88 114.125 128.941 113.906 129.064C113.691 129.187 113.522 129.366 113.399 129.601C113.28 129.833 113.219 130.113 113.215 130.441ZM123.868 127.22V128.811H119.269V127.22H123.868ZM120.313 125.39H122.431V132.509C122.431 132.705 122.461 132.857 122.521 132.967C122.58 133.073 122.663 133.147 122.769 133.19C122.879 133.234 123.005 133.255 123.147 133.255C123.247 133.255 123.346 133.247 123.446 133.23C123.545 133.21 123.621 133.195 123.674 133.186L124.007 134.761C123.901 134.795 123.752 134.833 123.56 134.876C123.368 134.922 123.134 134.95 122.859 134.96C122.348 134.98 121.901 134.912 121.517 134.757C121.135 134.601 120.839 134.359 120.627 134.031C120.415 133.703 120.31 133.288 120.313 132.788V125.39Z" fill="#404040"/>
</svg>
