<svg width="20" height="20" viewBox="0 0 20 20" fill="none" xmlns="http://www.w3.org/2000/svg">
<path d="M16.8397 1.50266L17.1335 1.09815L16.8397 1.50266C17.2854 1.82648 17.6773 2.21843 18.0011 2.66413C18.5147 3.37101 18.7613 4.21734 18.883 5.34033C19.0031 6.44939 19.0038 7.85764 19.0038 9.70473V9.79535C19.0038 11.6424 19.0031 13.0506 18.883 14.1597C18.7613 15.2827 18.5147 16.129 18.0011 16.8359C17.6773 17.2816 17.2854 17.6735 16.8397 17.9973C16.1328 18.5109 15.2864 18.7575 14.1635 18.8792C13.0544 18.9993 11.6461 19 9.79906 19H9.70844C7.86135 19 6.45318 18.9993 5.34412 18.8792C4.22112 18.7575 3.3748 18.5109 2.66791 17.9973C2.22221 17.6735 1.83026 17.2816 1.50645 16.8359L1.10194 17.1298L1.50644 16.8359C0.992864 16.129 0.746272 15.2827 0.624603 14.1597C0.504442 13.0506 0.503776 11.6424 0.503784 9.79525V9.70475C0.503776 7.85762 0.504442 6.44941 0.624603 5.34033C0.746272 4.21734 0.992864 3.37101 1.50645 2.66413C1.83026 2.21843 2.22221 1.82648 2.66791 1.50266C3.3748 0.98908 4.22112 0.742488 5.34412 0.620819C6.4532 0.500658 7.8614 0.499992 9.70853 0.5H9.79903C11.6462 0.499992 13.0544 0.500658 14.1635 0.620819C15.2864 0.742488 16.1328 0.98908 16.8397 1.50266ZM9.75378 8.5C9.89185 8.5 10.0038 8.61193 10.0038 8.75V14.75C10.0038 14.8881 9.89185 15 9.75378 15C9.61571 15 9.50378 14.8881 9.50378 14.75V8.75C9.50378 8.61193 9.61571 8.5 9.75378 8.5ZM5.39797 1.11791C4.31752 1.23497 3.56925 1.46584 2.9618 1.90717C2.55855 2.20015 2.20393 2.55477 1.91095 2.95802C1.46962 3.56546 1.23875 4.31374 1.12169 5.39419C1.00412 6.47935 1.00378 7.8697 1.00378 9.75C1.00378 11.6303 1.00412 13.0206 1.12169 14.1058C1.23875 15.1863 1.46962 15.9345 1.91095 16.542C2.20393 16.9452 2.55856 17.2999 2.9618 17.5928C3.56925 18.0342 4.31752 18.265 5.39797 18.3821C6.48314 18.4997 7.87348 18.5 9.75378 18.5C11.6341 18.5 13.0244 18.4997 14.1096 18.3821C15.19 18.265 15.9383 18.0342 16.5458 17.5928C16.949 17.2999 17.3036 16.9452 17.5966 16.542C18.038 15.9345 18.2688 15.1863 18.3859 14.1058C18.5034 13.0206 18.5038 11.6303 18.5038 9.75C18.5038 7.8697 18.5034 6.47935 18.3859 5.39419C18.2688 4.31374 18.0379 3.56547 17.5966 2.95802C17.3036 2.55477 16.949 2.20015 16.5458 1.90717C15.9383 1.46584 15.19 1.23497 14.1096 1.11791C13.0244 1.00034 11.6341 1 9.75378 1C7.87348 1 6.48313 1.00034 5.39797 1.11791ZM10.2538 5.75C10.2538 6.02614 10.0299 6.25 9.75378 6.25C9.47763 6.25 9.25378 6.02614 9.25378 5.75C9.25378 5.47386 9.47763 5.25 9.75378 5.25C10.0299 5.25 10.2538 5.47386 10.2538 5.75Z" fill="white" stroke="white"/>
</svg>
