<svg width="19" height="19" viewBox="0 0 19 19" fill="none" xmlns="http://www.w3.org/2000/svg">
<path d="M3.5131 14.263L3.81771 13.9584L3.5615 13.6121C1.59886 10.9592 1.81297 7.2033 4.21564 4.80064C6.12745 2.88882 8.69766 1.80829 11.1635 1.20848C13.6252 0.609699 15.9415 0.5 17.3019 0.5C17.621 0.5 17.8864 0.506027 18.0878 0.513068C18.097 0.775598 18.1044 1.1471 18.099 1.60403C18.0877 2.56318 18.02 3.89477 17.7945 5.38293C17.3411 8.37519 16.2614 11.924 13.8002 14.3852C12.4769 15.7085 10.743 16.3702 9.00792 16.3702C7.59375 16.3702 6.18157 15.9217 4.98873 15.0393L4.64242 14.7831L4.33782 15.0877L1.53183 17.8937L0.707107 17.069L3.5131 14.263ZM15.1308 2.64479L16.1159 1.65959L14.7291 1.79357C11.8287 2.07378 7.7155 2.95023 5.04036 5.62536C3.98128 6.68445 3.39729 8.0954 3.39729 9.59292C3.39729 10.686 3.71147 11.7313 4.29145 12.6289L4.62734 13.1488L5.06498 12.7111L15.1308 2.64479ZM5.8897 13.5353L5.45206 13.973L5.9719 14.3088C6.86954 14.8888 7.91482 15.203 9.00792 15.203C10.506 15.203 11.9164 14.619 12.9755 13.5599C15.6446 10.8908 16.5222 6.78246 16.804 3.87402L16.9384 2.48657L15.9528 3.47224L5.8897 13.5353Z" fill="white" stroke="white"/>
</svg>
