<svg width="143" height="193" viewBox="0 0 143 193" fill="none" xmlns="http://www.w3.org/2000/svg">
<g clip-path="url(#clip0_1_4)">
<mask id="mask0_1_4" style="mask-type:luminance" maskUnits="userSpaceOnUse" x="0" y="0" width="143" height="193">
<path d="M143 0H0V193H143V0Z" fill="white"/>
</mask>
<g mask="url(#mask0_1_4)">
<path d="M143 0H0V193H143V0Z" fill="white"/>
<path d="M25.7355 163.459H16.8793V147.992H25.7355V150.678H20.133V154.079H25.3476V156.765H20.133V160.751H25.7355V163.459ZM33.031 163.676C31.8674 163.676 30.8762 163.466 30.0574 163.048C29.2386 162.614 28.6137 161.95 28.1828 161.055C27.7518 160.159 27.5363 159.011 27.5363 157.61C27.5363 156.166 27.7806 154.989 28.2689 154.079C28.7573 153.169 29.4325 152.498 30.2944 152.064C31.1707 151.631 32.1764 151.414 33.3112 151.414C34.1157 151.414 34.8123 151.494 35.4013 151.653C36.0047 151.812 36.5291 151.999 36.9743 152.216L36.0262 154.707C35.5234 154.505 35.0493 154.339 34.604 154.209C34.1731 154.079 33.7421 154.014 33.3112 154.014C32.7509 154.014 32.2841 154.151 31.9105 154.426C31.537 154.686 31.2569 155.083 31.0702 155.617C30.8978 156.137 30.8116 156.794 30.8116 157.588C30.8116 158.368 30.905 159.018 31.0917 159.538C31.2929 160.044 31.5801 160.426 31.9536 160.686C32.3272 160.932 32.7797 161.055 33.3112 161.055C33.9864 161.055 34.5825 160.968 35.0996 160.795C35.6168 160.607 36.1196 160.354 36.608 160.036V162.788C36.1196 163.105 35.6025 163.329 35.0565 163.459C34.5251 163.604 33.8499 163.676 33.031 163.676ZM49.5728 157.523C49.5728 158.506 49.4363 159.379 49.1634 160.145C48.9048 160.91 48.524 161.56 48.0214 162.094C47.5328 162.614 46.9367 163.012 46.2329 163.286C45.5288 163.546 44.7316 163.676 43.8411 163.676C43.0222 163.676 42.2608 163.546 41.557 163.286C40.8674 163.012 40.2711 162.614 39.7685 162.094C39.2656 161.56 38.8705 160.91 38.5834 160.145C38.3103 159.379 38.1739 158.506 38.1739 157.523C38.1739 156.209 38.4037 155.104 38.8635 154.209C39.323 153.299 39.984 152.606 40.8459 152.129C41.7078 151.653 42.7276 151.414 43.9057 151.414C45.0117 151.414 45.9886 151.653 46.8362 152.129C47.6836 152.606 48.3516 153.299 48.8402 154.209C49.3285 155.104 49.5728 156.209 49.5728 157.523ZM41.4492 157.523C41.4492 158.303 41.5282 158.961 41.6863 159.495C41.8586 160.015 42.1243 160.412 42.4835 160.686C42.8426 160.946 43.3094 161.076 43.8841 161.076C44.4587 161.076 44.9184 160.946 45.2632 160.686C45.6223 160.412 45.8809 160.015 46.0389 159.495C46.2113 158.961 46.2975 158.303 46.2975 157.523C46.2975 156.744 46.2113 156.094 46.0389 155.574C45.8809 155.054 45.6223 154.664 45.2632 154.404C44.904 154.144 44.4371 154.014 43.8626 154.014C43.015 154.014 42.3973 154.31 42.0095 154.902C41.6359 155.48 41.4492 156.354 41.4492 157.523ZM58.5612 163.459L54.855 151.328H54.7688C54.7833 151.617 54.8048 152.05 54.8334 152.628C54.8622 153.205 54.891 153.826 54.9196 154.491C54.9484 155.14 54.9627 155.733 54.9627 156.267V163.459H52.0538V147.992H56.4926L60.1342 159.82H60.1989L64.056 147.992H68.4948V163.459H65.4566V156.137C65.4566 155.646 65.4638 155.083 65.4781 154.447C65.5069 153.812 65.5285 153.212 65.5428 152.649C65.5716 152.072 65.5931 151.638 65.6074 151.349H65.5212L61.5564 163.459H58.5612ZM76.5401 151.414C77.6318 151.414 78.5656 151.624 79.3413 152.043C80.1313 152.462 80.7419 153.068 81.1729 153.862C81.6038 154.657 81.8193 155.631 81.8193 156.787V158.347H74.2344C74.2632 159.257 74.5289 159.971 75.0317 160.491C75.5489 161.011 76.2599 161.271 77.1649 161.271C77.9264 161.271 78.6159 161.199 79.2336 161.055C79.8512 160.896 80.4906 160.657 81.1513 160.34V162.831C80.5768 163.12 79.9662 163.329 79.3197 163.459C78.6876 163.604 77.9191 163.676 77.0141 163.676C75.8362 163.676 74.7947 163.459 73.8897 163.026C72.9846 162.578 72.2736 161.907 71.7564 161.011C71.2393 160.116 70.9807 158.989 70.9807 157.632C70.9807 156.245 71.2105 155.097 71.6702 154.187C72.1443 153.263 72.798 152.57 73.6311 152.108C74.4642 151.645 75.4339 151.414 76.5401 151.414ZM76.5616 153.711C75.944 153.711 75.4268 153.913 75.0102 154.317C74.608 154.722 74.371 155.35 74.2991 156.202H78.8026C78.8026 155.725 78.7164 155.299 78.544 154.924C78.3859 154.548 78.1419 154.252 77.8114 154.036C77.4809 153.819 77.0645 153.711 76.5616 153.711ZM88.9478 161.098C89.3068 161.098 89.6516 161.062 89.982 160.99C90.3125 160.917 90.6428 160.831 90.9733 160.73V163.134C90.6285 163.279 90.1975 163.401 89.6804 163.503C89.1775 163.618 88.6245 163.676 88.0212 163.676C87.3174 163.676 86.6852 163.56 86.125 163.329C85.579 163.098 85.141 162.701 84.8105 162.138C84.4946 161.56 84.3365 160.766 84.3365 159.755V154.057H82.8066V152.693L84.5735 151.609L85.5001 149.118H87.5471V151.631H90.844V154.057H87.5471V159.755C87.5471 160.202 87.6764 160.542 87.935 160.773C88.1936 160.99 88.5311 161.098 88.9478 161.098ZM99.4759 151.414C99.634 151.414 99.8207 151.422 100.036 151.436C100.252 151.45 100.424 151.472 100.553 151.501L100.316 154.534C100.216 154.505 100.065 154.483 99.8637 154.469C99.6771 154.44 99.5119 154.426 99.3681 154.426C98.9517 154.426 98.5493 154.483 98.1615 154.599C97.7736 154.7 97.4218 154.866 97.1056 155.097C96.8039 155.328 96.5599 155.639 96.373 156.029C96.2006 156.404 96.1144 156.874 96.1144 157.437V163.459H92.9038V151.631H95.3387L95.8127 153.624H95.9636C96.1936 153.22 96.4807 152.851 96.8255 152.519C97.1702 152.187 97.5654 151.92 98.0106 151.718C98.4704 151.515 98.9587 151.414 99.4759 151.414ZM105.469 151.631V163.459H102.258V151.631H105.469ZM103.874 146.995C104.348 146.995 104.757 147.111 105.102 147.342C105.447 147.558 105.619 147.97 105.619 148.577C105.619 149.169 105.447 149.58 105.102 149.811C104.757 150.042 104.348 150.158 103.874 150.158C103.385 150.158 102.969 150.042 102.624 149.811C102.294 149.58 102.129 149.169 102.129 148.577C102.129 147.97 102.294 147.558 102.624 147.342C102.969 147.111 103.385 146.995 103.874 146.995ZM113.176 163.676C112.012 163.676 111.021 163.466 110.202 163.048C109.383 162.614 108.759 161.95 108.328 161.055C107.897 160.159 107.681 159.011 107.681 157.61C107.681 156.166 107.925 154.989 108.414 154.079C108.902 153.169 109.577 152.498 110.439 152.064C111.316 151.631 112.321 151.414 113.456 151.414C114.261 151.414 114.957 151.494 115.546 151.653C116.149 151.812 116.674 151.999 117.119 152.216L116.171 154.707C115.668 154.505 115.194 154.339 114.749 154.209C114.318 154.079 113.887 154.014 113.456 154.014C112.896 154.014 112.429 154.151 112.055 154.426C111.682 154.686 111.402 155.083 111.215 155.617C111.043 156.137 110.956 156.794 110.956 157.588C110.956 158.368 111.05 159.018 111.237 159.538C111.438 160.044 111.725 160.426 112.098 160.686C112.472 160.932 112.925 161.055 113.456 161.055C114.131 161.055 114.727 160.968 115.244 160.795C115.762 160.607 116.264 160.354 116.753 160.036V162.788C116.264 163.105 115.747 163.329 115.201 163.459C114.67 163.604 113.995 163.676 113.176 163.676ZM127.24 159.95C127.24 160.744 127.053 161.423 126.679 161.986C126.306 162.535 125.746 162.954 124.999 163.243C124.252 163.531 123.325 163.676 122.219 163.676C121.4 163.676 120.696 163.618 120.107 163.503C119.518 163.401 118.929 163.228 118.34 162.983V160.318C118.972 160.607 119.655 160.845 120.387 161.033C121.12 161.221 121.766 161.315 122.327 161.315C122.959 161.315 123.404 161.221 123.663 161.033C123.936 160.845 124.072 160.6 124.072 160.296C124.072 160.094 124.015 159.914 123.9 159.755C123.799 159.596 123.569 159.415 123.21 159.213C122.851 159.011 122.291 158.751 121.529 158.433C120.797 158.116 120.193 157.805 119.719 157.502C119.245 157.184 118.893 156.809 118.664 156.375C118.434 155.928 118.319 155.372 118.319 154.707C118.319 153.61 118.742 152.786 119.59 152.238C120.438 151.689 121.565 151.414 122.973 151.414C123.706 151.414 124.403 151.487 125.063 151.631C125.724 151.775 126.406 152.014 127.11 152.346L126.141 154.664C125.753 154.491 125.379 154.339 125.02 154.209C124.661 154.079 124.309 153.978 123.964 153.906C123.634 153.833 123.289 153.797 122.93 153.797C122.456 153.797 122.097 153.862 121.853 153.992C121.623 154.122 121.508 154.317 121.508 154.577C121.508 154.765 121.565 154.938 121.68 155.097C121.81 155.242 122.047 155.4 122.391 155.574C122.75 155.747 123.275 155.978 123.964 156.267C124.64 156.541 125.221 156.83 125.71 157.134C126.198 157.422 126.572 157.791 126.83 158.238C127.103 158.672 127.24 159.242 127.24 159.95Z" fill="#22793A"/>
<path d="M69.6962 175.088C68.9348 175.088 68.2525 175.233 67.6492 175.522C67.0458 175.796 66.5287 176.208 66.0977 176.756C65.6811 177.291 65.3579 177.948 65.1281 178.728C64.9126 179.493 64.8049 180.36 64.8049 181.327C64.8049 182.598 64.9843 183.703 65.3436 184.642C65.7026 185.581 66.2413 186.303 66.9597 186.808C67.6923 187.314 68.5973 187.566 69.6747 187.566C70.3066 187.566 70.9029 187.509 71.4632 187.393C72.0377 187.278 72.6052 187.133 73.1655 186.96V188.65C72.6195 188.866 72.0593 189.025 71.4847 189.126C70.91 189.227 70.2204 189.278 69.4161 189.278C67.9364 189.278 66.7011 188.953 65.7099 188.303C64.733 187.653 64.0003 186.729 63.512 185.53C63.0234 184.331 62.7793 182.923 62.7793 181.306C62.7793 180.136 62.9302 179.067 63.2319 178.1C63.5335 177.132 63.9788 176.294 64.5678 175.587C65.1567 174.879 65.8823 174.337 66.7442 173.962C67.6061 173.572 68.5973 173.377 69.7178 173.377C70.4504 173.377 71.1615 173.456 71.851 173.615C72.5406 173.774 73.1655 173.998 73.7257 174.287L72.9715 175.933C72.5261 175.717 72.0234 175.522 71.4632 175.348C70.9172 175.175 70.3282 175.088 69.6962 175.088ZM85.1191 183.234C85.1191 184.201 84.997 185.061 84.7528 185.812C84.523 186.548 84.1855 187.177 83.74 187.696C83.2948 188.216 82.7561 188.614 82.1239 188.888C81.492 189.148 80.7879 189.278 80.0122 189.278C79.2941 189.278 78.6261 189.148 78.0083 188.888C77.4049 188.614 76.8735 188.216 76.4137 187.696C75.9685 187.177 75.6237 186.548 75.3794 185.812C75.1353 185.061 75.0131 184.201 75.0131 183.234C75.0131 181.948 75.2143 180.865 75.6164 179.984C76.0331 179.089 76.6221 178.41 77.3834 177.948C78.1448 177.471 79.0426 177.233 80.0769 177.233C81.0681 177.233 81.9372 177.471 82.6842 177.948C83.4456 178.41 84.0417 179.089 84.4726 179.984C84.9036 180.865 85.1191 181.948 85.1191 183.234ZM76.9524 183.234C76.9524 184.144 77.0601 184.938 77.2756 185.617C77.4911 186.281 77.8288 186.794 78.2884 187.155C78.7481 187.516 79.3372 187.696 80.0553 187.696C80.7736 187.696 81.3627 187.516 81.8223 187.155C82.282 186.794 82.6195 186.281 82.835 185.617C83.065 184.938 83.1798 184.144 83.1798 183.234C83.1798 182.31 83.065 181.522 82.835 180.873C82.6195 180.223 82.282 179.724 81.8223 179.378C81.3627 179.017 80.7664 178.836 80.0338 178.836C78.9564 178.836 78.1736 179.226 77.685 180.006C77.1967 180.786 76.9524 181.862 76.9524 183.234ZM87.2161 187.891C87.2161 187.357 87.3381 186.982 87.5824 186.765C87.8265 186.548 88.1282 186.44 88.4874 186.44C88.8465 186.44 89.1554 186.548 89.414 186.765C89.6726 186.982 89.8018 187.357 89.8018 187.891C89.8018 188.411 89.6726 188.787 89.414 189.018C89.1554 189.249 88.8465 189.365 88.4874 189.365C88.1282 189.365 87.8265 189.249 87.5824 189.018C87.3381 188.787 87.2161 188.411 87.2161 187.891Z" fill="#22793A"/>
<path d="M72.6042 17.7245C53.3345 17.7245 37.6599 33.5489 37.6599 53.0027C37.6599 72.4567 53.3345 88.2812 72.6042 88.2812C91.874 88.2812 107.548 72.4567 107.548 53.0027C107.548 33.5489 91.874 17.7245 72.6042 17.7245ZM84.8973 72.6316C82.3104 78.6981 78.6845 82.6361 74.7328 83.6748V72.6316H84.8973ZM84.6732 81.4537C85.6 80.261 86.4658 78.9244 87.2704 77.4538C88.0853 75.9733 88.8185 74.3487 89.4806 72.6214H96.2942C93.1674 76.4668 89.1648 79.4898 84.6732 81.4434V81.4537ZM89.4704 33.3638C88.8185 31.6364 88.0751 30.0221 87.2602 28.5311C86.4556 27.0608 85.5898 25.7241 84.6631 24.5313C89.1546 26.4849 93.1471 29.5182 96.2841 33.3535H89.4704V33.3638ZM74.7226 33.3638V22.3206C78.6743 23.3693 82.3002 27.2973 84.8872 33.3638H74.7226ZM92.8313 52.9925C92.8313 47.6663 92.149 42.4019 90.8657 37.672H99.2375C101.876 42.3298 103.271 47.6149 103.271 52.9925C103.271 58.3701 101.876 63.6551 99.2375 68.3129H90.8657C92.1592 63.573 92.8313 58.3084 92.8313 52.9925ZM74.7226 68.3129V37.6618H86.4353C87.8306 42.3298 88.5638 47.6046 88.5638 52.9822C88.5638 58.3599 87.8306 63.6347 86.4353 68.3027H74.7226V68.3129ZM60.2908 33.3535C62.8777 27.287 66.5034 23.3591 70.4551 22.3104V33.3535H60.2908ZM60.5149 24.5313C59.5879 25.7241 58.7223 27.0608 57.9175 28.5311C57.1028 30.0117 56.3696 31.6364 55.7075 33.3638H48.8939C52.0207 29.5182 56.0233 26.4952 60.5149 24.5415V24.5313ZM70.4551 37.6618V68.3129H58.7426C57.3473 63.6449 56.6139 58.3701 56.6139 52.9925C56.6139 47.6149 57.3473 42.3401 58.7426 37.672H70.4551V37.6618ZM54.3122 68.3129H45.9402C43.3024 63.6551 41.907 58.3701 41.907 52.9925C41.907 47.6149 43.3024 42.3298 45.9402 37.672H54.3122C53.0187 42.4121 52.3464 47.6767 52.3464 52.9925C52.3464 58.3084 53.0289 63.5833 54.3122 68.3129ZM55.7075 72.6214C56.3594 74.3487 57.1028 75.9733 57.9175 77.4538C58.7223 78.9244 59.5879 80.261 60.5149 81.4537C56.0233 79.5 52.0308 76.4668 48.8939 72.6316H55.7075V72.6214ZM70.4551 72.6214V83.6643C66.5034 82.6156 62.8777 78.6879 60.2908 72.6214H70.4551Z" fill="#22793A"/>
<path d="M46.7034 83.9759L43.9229 81.1689C41.8759 79.102 38.5555 79.102 36.4983 81.1689C34.451 83.2356 34.451 86.5875 36.4983 88.6646L42.5276 94.7516C43.6683 95.9033 43.6683 97.7746 42.5276 98.9365C41.3869 100.088 39.5332 100.088 38.3824 98.9365L30.0613 90.5359C28.5845 89.0451 27.7494 87.0194 27.7494 84.9115V69.118C27.7494 66.1876 25.3968 63.8227 22.5043 63.8227C19.6016 63.8227 17.259 66.1978 17.259 69.118V86.2893C17.259 90.3303 18.8479 94.2066 21.6792 97.0652L42.2831 117.866C45.1145 120.725 46.7034 124.601 46.7034 128.642V138.379H61.1864V104.921C61.1864 100.88 59.5975 97.0034 56.7661 94.145L46.7034 83.9861V83.9759Z" fill="#22793A"/>
<path d="M98.5031 83.9757L101.284 81.1687C103.331 79.102 106.651 79.102 108.708 81.1687C110.755 83.2354 110.755 86.5875 108.708 88.6644L102.679 94.7516C101.538 95.9031 101.538 97.7746 102.679 98.9363C103.82 100.088 105.673 100.088 106.824 98.9363L115.145 90.5359C116.622 89.0449 117.457 87.0194 117.457 84.9115V69.118C117.457 66.1876 119.81 63.8225 122.702 63.8225C125.605 63.8225 127.948 66.1978 127.948 69.118V86.2893C127.948 90.3301 126.359 94.2067 123.527 97.065L102.923 117.866C100.092 120.724 98.5031 124.601 98.5031 128.642V138.379H84.0201V104.921C84.0201 100.88 85.609 97.0034 88.4404 94.1448L98.5031 83.9861V83.9757Z" fill="#22793A"/>
</g>
</g>
<defs>
<clipPath id="clip0_1_4">
<rect width="143" height="193" fill="white"/>
</clipPath>
</defs>
</svg>
