<svg width="22" height="22" viewBox="0 0 22 22" fill="none" xmlns="http://www.w3.org/2000/svg">
<path d="M11.6977 1.69767C11.6977 1.31236 11.3853 1 11 1C10.6147 1 10.3023 1.31236 10.3023 1.69767V8.2093C10.3023 8.59462 10.6147 8.90698 11 8.90698C11.3853 8.90698 11.6977 8.59462 11.6977 8.2093V1.69767Z" fill="white"/>
<path d="M5.83764 4.11596C6.14571 3.88453 6.20785 3.44718 5.97642 3.13911C5.745 2.83103 5.30765 2.7689 4.99957 3.00032C2.57253 4.82351 1 7.72798 1 11C1 16.5228 5.47715 21 11 21C16.5228 21 21 16.5228 21 11C21 7.75231 19.3887 4.82604 17.0051 3.00388C16.699 2.76986 16.2611 2.82831 16.0271 3.13442C15.7931 3.44053 15.8516 3.87839 16.1577 4.1124C18.2211 5.68987 19.6047 8.2178 19.6047 11C19.6047 15.7522 15.7522 19.6047 11 19.6047C6.24778 19.6047 2.39535 15.7522 2.39535 11C2.39535 8.18555 3.74618 5.68705 5.83764 4.11596Z" fill="white"/>
<path d="M11.6977 1.69767C11.6977 1.31236 11.3853 1 11 1C10.6147 1 10.3023 1.31236 10.3023 1.69767V8.2093C10.3023 8.59462 10.6147 8.90698 11 8.90698C11.3853 8.90698 11.6977 8.59462 11.6977 8.2093V1.69767Z" stroke="white" stroke-width="0.5" stroke-linecap="round"/>
<path d="M5.83764 4.11596C6.14571 3.88453 6.20785 3.44718 5.97642 3.13911C5.745 2.83103 5.30765 2.7689 4.99957 3.00032C2.57253 4.82351 1 7.72798 1 11C1 16.5228 5.47715 21 11 21C16.5228 21 21 16.5228 21 11C21 7.75231 19.3887 4.82604 17.0051 3.00388C16.699 2.76986 16.2611 2.82831 16.0271 3.13442C15.7931 3.44053 15.8516 3.87839 16.1577 4.1124C18.2211 5.68987 19.6047 8.2178 19.6047 11C19.6047 15.7522 15.7522 19.6047 11 19.6047C6.24778 19.6047 2.39535 15.7522 2.39535 11C2.39535 8.18555 3.74618 5.68705 5.83764 4.11596Z" stroke="white" stroke-width="0.5" stroke-linecap="round"/>
</svg>
