<svg width="17" height="17" viewBox="0 0 17 17" fill="none" xmlns="http://www.w3.org/2000/svg">
<path d="M15.8129 0C13.2842 0 7.18762 0.406435 3.5297 4.06436C1.17079 6.42327 0.961881 10.1094 2.88762 12.7124L0 15.6L1.4 17L4.28762 14.1124C5.45743 14.9777 6.84356 15.4183 8.23267 15.4183C9.93465 15.4183 11.6371 14.7688 12.9356 13.4703C17.6386 8.76733 16.9668 0.0331685 16.9668 0.0331685C16.9668 0.0331685 16.5356 0 15.8129 0ZM3.56188 8.76733C3.56188 7.5198 4.04752 6.34653 4.9297 5.46436C7.25644 3.13762 10.8767 2.34802 13.5054 2.09406L4.30594 11.2941C3.82327 10.547 3.56188 9.67772 3.56188 8.76733ZM11.5356 12.0698C10.6535 12.952 9.48069 13.4376 8.23267 13.4376C7.32228 13.4376 6.45297 13.1762 5.70594 12.6936L14.903 3.49653C14.6475 6.13267 13.8569 9.74852 11.5356 12.0698Z" fill="#22793A"/>
</svg>
