<svg width="23" height="23" viewBox="0 0 23 23" fill="none" xmlns="http://www.w3.org/2000/svg">
<rect x="0.5" y="0.5" width="22" height="22" stroke="white"/>
<path d="M11.5 11.5C12.6437 11.5 13.7406 11.0456 14.5494 10.2369C15.3581 9.42815 15.8125 8.33125 15.8125 7.1875C15.8125 6.04375 15.3581 4.94685 14.5494 4.1381C13.7406 3.32935 12.6437 2.875 11.5 2.875C10.3563 2.875 9.25935 3.32935 8.4506 4.1381C7.64185 4.94685 7.1875 6.04375 7.1875 7.1875C7.1875 8.33125 7.64185 9.42815 8.4506 10.2369C9.25935 11.0456 10.3563 11.5 11.5 11.5ZM14.375 7.1875C14.375 7.95 14.0721 8.68126 13.5329 9.22043C12.9938 9.7596 12.2625 10.0625 11.5 10.0625C10.7375 10.0625 10.0062 9.7596 9.46707 9.22043C8.9279 8.68126 8.625 7.95 8.625 7.1875C8.625 6.425 8.9279 5.69373 9.46707 5.15457C10.0062 4.6154 10.7375 4.3125 11.5 4.3125C12.2625 4.3125 12.9938 4.6154 13.5329 5.15457C14.0721 5.69373 14.375 6.425 14.375 7.1875ZM20.125 18.6875C20.125 20.125 18.6875 20.125 18.6875 20.125H4.3125C4.3125 20.125 2.875 20.125 2.875 18.6875C2.875 17.25 4.3125 12.9375 11.5 12.9375C18.6875 12.9375 20.125 17.25 20.125 18.6875ZM18.6875 18.6818C18.6861 18.3281 18.4661 17.2644 17.4915 16.2898C16.5543 15.3525 14.7904 14.375 11.5 14.375C8.20813 14.375 6.44575 15.3525 5.5085 16.2898C4.53388 17.2644 4.31537 18.3281 4.3125 18.6818H18.6875Z" fill="white"/>
</svg>
