<svg width="20" height="21" viewBox="0 0 20 21" fill="none" xmlns="http://www.w3.org/2000/svg">
<path d="M4.04292 4.56951L3.8687 5.29899L4.04292 4.56951ZM7.21883 2.82244L6.50037 2.60724L7.21883 2.82244ZM1.50797 8.75293L2.03405 8.21839L1.50797 8.75293ZM1.50797 12.2471L0.981884 11.7125H0.981884L1.50797 12.2471ZM4.04292 16.4305L4.21714 17.16L4.04292 16.4305ZM7.21883 18.1776L6.50037 18.3928L7.21883 18.1776ZM12.2887 18.1776L13.0072 18.3928L12.2887 18.1776ZM15.4646 16.4305L15.6389 15.701L15.4646 16.4305ZM17.9996 12.2471L17.4735 12.7816L17.9996 12.2471ZM17.9996 8.75293L17.4735 8.21839L17.9996 8.75293ZM15.4646 4.56951L15.2904 3.84002L15.4646 4.56951ZM12.2887 2.82244L13.0072 2.60724L12.2887 2.82244ZM3.8687 5.29899C5.60883 5.71459 7.42503 4.74789 7.9373 3.03764L6.50037 2.60724C6.23178 3.50396 5.23697 4.08359 4.21714 3.84002L3.8687 5.29899ZM2.03405 8.21839C1.38599 7.58058 1.37775 6.77018 1.76041 6.13868C2.14697 5.50073 2.92276 5.07307 3.8687 5.29899L4.21714 3.84002C2.59056 3.45154 1.17651 4.20784 0.477551 5.36133C-0.225309 6.52125 -0.214759 8.10977 0.981885 9.28748L2.03405 8.21839ZM2.03405 12.7816C3.32216 11.5139 3.32216 9.48612 2.03405 8.21839L0.981885 9.28748C1.67289 9.96754 1.67289 11.0325 0.981884 11.7125L2.03405 12.7816ZM3.8687 15.701C2.92276 15.9269 2.14697 15.4993 1.76041 14.8613C1.37775 14.2298 1.38599 13.4194 2.03405 12.7816L0.981884 11.7125C-0.21476 12.8902 -0.225309 14.4787 0.477551 15.6387C1.17651 16.7922 2.59056 17.5485 4.21714 17.16L3.8687 15.701ZM7.9373 17.9624C7.42503 16.2521 5.60883 15.2854 3.8687 15.701L4.21714 17.16C5.23697 16.9164 6.23178 17.496 6.50037 18.3928L7.9373 17.9624ZM11.5703 17.9624C11.3183 18.8036 10.5708 19.25 9.75379 19.25C8.93681 19.25 8.18927 18.8036 7.9373 17.9624L6.50037 18.3928C6.97622 19.9814 8.39972 20.75 9.75379 20.75C11.1079 20.75 12.5314 19.9814 13.0072 18.3928L11.5703 17.9624ZM15.6389 15.701C13.8987 15.2854 12.0825 16.2521 11.5703 17.9624L13.0072 18.3928C13.2758 17.496 14.2706 16.9164 15.2904 17.16L15.6389 15.701ZM17.4735 12.7816C18.1216 13.4194 18.1298 14.2298 17.7472 14.8613C17.3606 15.4993 16.5848 15.9269 15.6389 15.701L15.2904 17.16C16.917 17.5485 18.3311 16.7922 19.03 15.6387C19.7329 14.4787 19.7223 12.8902 18.5257 11.7125L17.4735 12.7816ZM17.4735 8.21839C16.1854 9.48612 16.1854 11.5139 17.4735 12.7816L18.5257 11.7125C17.8347 11.0325 17.8347 9.96754 18.5257 9.28748L17.4735 8.21839ZM15.6389 5.29899C16.5848 5.07307 17.3606 5.50073 17.7472 6.13867C18.1298 6.77018 18.1216 7.58058 17.4735 8.21839L18.5257 9.28748C19.7223 8.10977 19.7329 6.52125 19.03 5.36133C18.3311 4.20784 16.917 3.45154 15.2904 3.84002L15.6389 5.29899ZM11.5703 3.03764C12.0825 4.74789 13.8987 5.71459 15.6389 5.29899L15.2904 3.84002C14.2706 4.08359 13.2758 3.50396 13.0072 2.60724L11.5703 3.03764ZM13.0072 2.60724C12.5314 1.01856 11.1079 0.25 9.75378 0.25C8.39971 0.25 6.97622 1.01856 6.50037 2.60724L7.9373 3.03764C8.18927 2.1964 8.93681 1.75 9.75379 1.75C10.5708 1.75 11.3183 2.1964 11.5703 3.03764L13.0072 2.60724ZM6.18038 10.5C6.18038 12.4337 7.81483 13.9401 9.75378 13.9401V12.4401C8.57409 12.4401 7.68038 11.5377 7.68038 10.5H6.18038ZM9.75378 13.9401C11.6927 13.9401 13.3272 12.4337 13.3272 10.5H11.8272C11.8272 11.5377 10.9335 12.4401 9.75378 12.4401V13.9401ZM13.3272 10.5C13.3272 8.5663 11.6927 7.05986 9.75378 7.05986V8.55986C10.9335 8.55986 11.8272 9.46225 11.8272 10.5H13.3272ZM9.75378 7.05986C7.81483 7.05986 6.18038 8.5663 6.18038 10.5H7.68038C7.68038 9.46225 8.57409 8.55986 9.75378 8.55986V7.05986Z" fill="white"/>
</svg>
