<svg width="16" height="16" viewBox="0 0 16 16" fill="none" xmlns="http://www.w3.org/2000/svg">
<circle cx="8" cy="8" r="8" fill="black"/>
<path fill-rule="evenodd" clip-rule="evenodd" d="M3.84422 8.66069L6.58579 5.91912L8 4.50491L9.41421 5.91912L12.1558 8.66069C13.1875 8.5812 14 7.71881 14 6.66667C14 5.5621 13.1046 4.66667 12 4.66667C11.5733 4.66667 11.2173 4.35915 11.0426 3.96987C10.5215 2.80872 9.35519 2 8 2C6.64481 2 5.47851 2.80872 4.95737 3.96987C4.78266 4.35915 4.42669 4.66667 4 4.66667C2.89543 4.66667 2 5.5621 2 6.66667C2 7.71881 2.81245 8.5812 3.84422 8.66069Z" fill="white"/>
<path d="M8.00004 8L7.29293 7.29289L8.00004 6.58579L8.70715 7.29289L8.00004 8ZM9.00004 14C9.00004 14.5523 8.55233 15 8.00004 15C7.44776 15 7.00004 14.5523 7.00004 14L9.00004 14ZM4.62627 9.95956L7.29293 7.29289L8.70715 8.70711L6.04048 11.3738L4.62627 9.95956ZM8.70715 7.29289L11.3738 9.95956L9.9596 11.3738L7.29293 8.70711L8.70715 7.29289ZM9.00004 8L9.00004 14L7.00004 14L7.00004 8L9.00004 8Z" fill="white"/>
</svg>
